<svg width="413" height="137" viewBox="0 0 413 137" fill="none" xmlns="http://www.w3.org/2000/svg">
<path fill-rule="evenodd" clip-rule="evenodd" d="M0.000519464 68.2304C0.00017326 68.3202 0 68.41 0 68.5C0 106.332 30.6684 137 68.5 137C86.8688 137 103.549 129.77 115.85 118H363C390.614 118 413 95.6142 413 68C413 40.3858 390.614 18 363 18H114.782C102.592 6.82202 86.3428 0 68.5 0C31.817 0 1.86877 28.8346 0.084144 65.0748C0.0283052 66.0428 0 67.018 0 68C0 68.0768 0.000173277 68.1536 0.000519464 68.2304Z" fill="#D9D9D9"/>
</svg>
