<svg width="97" height="78" viewBox="0 0 97 78" fill="none" xmlns="http://www.w3.org/2000/svg">
<path d="M57.5142 8.11135L58.0046 8.25195C62.5291 9.56722 85.43 16.3129 91.1405 19.7515C92.8654 20.7959 94.286 22.2747 95.2602 24.0403C96.2347 25.8059 96.7286 27.7964 96.6929 29.8129C96.6489 32.0667 96.2451 34.951 95.6894 37.8871L95.5802 38.4761L95.2905 39.9437L95.1703 40.5294C94.084 45.6693 92.7754 50.3996 92.4853 51.4318L92.3668 51.845C92.0548 52.9126 90.5607 57.9355 88.6596 63.0683L88.4496 63.6344L88.2356 64.1934C87.0562 67.2667 85.7509 70.2801 84.4789 72.4084C83.4418 74.1388 81.9683 75.566 80.2061 76.547C78.444 77.5282 76.4549 78.0288 74.4384 77.9987C67.5539 77.8854 43.2262 71.0407 39.8581 70.081L39.0757 69.8567C37.3731 69.3685 30.341 67.3162 23.0306 64.9456L22.1033 64.6439L21.6304 64.4844L20.6993 64.1757L19.768 63.867C13.7295 61.8431 8.0305 59.7379 5.55581 58.2409C3.83023 57.1986 2.40889 55.7209 1.4341 53.9561C0.459309 52.1914 -0.0345769 50.2011 0.00182089 48.185C0.0492093 45.7115 0.540641 42.4588 1.16905 39.2275L1.29091 38.6362L1.41121 38.0503C2.21006 34.2381 3.13243 30.4527 4.17683 26.7002L4.37124 26.0222C4.72201 24.8405 5.94026 20.7584 7.53362 16.3246L7.73495 15.768L7.83367 15.4861L8.04208 14.9257L8.57416 13.5275L8.79362 12.9702C9.87827 10.1857 11.0659 7.52028 12.2214 5.59115C13.2583 3.86092 14.7317 2.43368 16.494 1.45251C18.2562 0.471361 20.2453 -0.0292301 22.2618 0.000930971C25.1505 0.0539084 31.1009 1.283 37.2958 2.76115L38.2436 2.99117L39.2007 3.22982L39.6793 3.34917L40.6325 3.58074C45.9247 4.9156 51.1975 6.32615 56.4492 7.81192L57.5127 8.11686L57.5142 8.11135ZM43.3447 23.1936L35.7309 49.7462L62.4407 43.0433L43.3447 23.1936Z" fill="black"/>
</svg>
