<svg width="194" height="89" viewBox="0 0 194 89" fill="none" xmlns="http://www.w3.org/2000/svg">
<g clip-path="url(#clip0_1_659)">
<path d="M42.8361 69.801L40.7716 70.2194L22.4034 74.7991L40.7699 44.2139L40.1622 42.1963C39.7305 40.6201 38.7081 39.2708 37.3075 38.4291C35.9068 37.5873 34.2359 37.3177 32.6418 37.6763L30.5754 38.0871L0.00188994 45.7099L0.616941 47.7257C1.70006 50.9745 4.73846 52.8842 8.12239 52.2494L10.1887 51.8387L28.5645 47.2571L10.1679 77.8497L10.7811 79.858C11.711 83.1047 14.9895 85.0752 18.294 84.3797L20.3603 83.969L50.9566 76.3405L50.3415 74.3247C49.2339 71.042 46.2483 69.1833 42.8304 69.8105L42.8361 69.801ZM59.1601 30.9601L59.1299 30.9676C53.7246 32.3185 49.0774 35.7622 46.2104 40.5415C43.3433 45.3208 42.4913 51.0441 43.8413 56.4531C45.1915 61.8619 48.6336 66.5134 53.4103 69.3845C58.1871 72.2557 63.9074 73.1115 69.3134 71.7636C74.7197 70.4157 79.3687 66.9746 82.2384 62.1969C85.108 57.4192 85.9634 51.6963 84.6161 46.2868C83.269 40.8771 79.8298 36.2237 75.0545 33.3499C70.2794 30.476 64.5595 29.6171 59.1527 30.962L59.1601 30.9601ZM75.0321 57.8612C74.2076 59.3367 73.095 60.6315 71.7606 61.6686C70.4261 62.7059 68.8969 63.4645 67.2638 63.8992C65.6305 64.334 63.9266 64.436 62.2531 64.1995C60.5796 63.9629 58.9705 63.3924 57.5216 62.5221C56.0726 61.6517 54.8133 60.499 53.8182 59.1326C52.8231 57.766 52.1127 56.2135 51.729 54.5673C51.3452 52.9209 51.2961 51.2143 51.5844 49.5487C51.8729 47.883 52.4929 46.2924 53.4075 44.8711C55.1822 42.114 57.9598 40.1562 61.1526 39.4121C64.3455 38.6679 67.7027 39.1959 70.5132 40.8843C73.324 42.5726 75.3672 45.2888 76.2107 48.4575C77.0542 51.6264 76.6314 54.999 75.0321 57.8612ZM165.16 4.53941C162.85 5.11862 160.69 6.1818 158.822 7.6586C156.954 9.13536 155.421 10.9921 154.324 13.1059C152.36 11.7461 150.13 10.8211 147.78 10.3927C145.431 9.96435 143.017 10.0424 140.7 10.6218C137.443 11.4296 134.503 13.1982 132.263 15.698C130.236 14.3316 126.423 14.1815 124.389 14.6887L134.563 55.495L136.58 54.8877C139.927 53.8124 141.805 50.781 141.099 47.3662L140.688 45.2994L137.125 31.0115L136.722 28.9429C136.417 27.3962 136.304 25.9782 136.702 24.6096C137.318 22.4666 138.76 20.6569 140.71 19.5786C142.66 18.5003 144.958 18.2418 147.1 18.8598C148.509 19.2644 149.789 20.0312 150.811 21.0838C151.816 22.1187 152.359 23.4292 152.827 24.9193L153.444 26.9427L157.007 41.2306L157.612 43.2408C158.068 44.8002 159.094 46.1311 160.486 46.9689C161.878 47.8068 163.534 48.09 165.125 47.7627L167.192 47.3519L161.596 24.9102L161.178 22.8454C160.876 21.3138 160.756 19.8655 161.167 18.4856C162.466 14.0322 167.125 11.4566 171.571 12.7585C172.982 13.165 174.262 13.9344 175.284 14.9901C176.281 16.0268 176.838 17.3582 177.285 18.8294L177.908 20.8433L181.47 35.1312L182.076 37.1414C183.123 40.4393 186.175 42.3055 189.596 41.6614L191.663 41.2506L185.558 16.7667C185.022 14.6237 184.068 12.6073 182.753 10.8327C181.437 9.05803 179.785 7.55987 177.891 6.42375C175.997 5.28763 173.897 4.53578 171.712 4.21121C169.528 3.88659 167.301 3.99554 165.158 4.53185L165.16 4.53941ZM89.0361 29.8499C87.5262 32.2174 86.5058 34.8636 86.0348 37.6324C85.5638 40.4012 85.6518 43.2366 86.2938 45.9711C86.936 48.7055 88.1191 51.2838 89.773 53.5536C91.4272 55.8236 93.5189 57.739 95.9247 59.1871C98.3305 60.6353 101.002 61.5864 103.781 61.9849C106.56 62.3834 109.39 62.2208 112.105 61.5069C114.82 60.7931 117.365 59.5422 119.588 57.8283C121.812 56.1143 123.669 53.972 125.052 51.5277C127.749 46.7579 128.479 41.1223 127.085 35.821C125.691 30.5198 122.284 25.972 117.589 23.1461C112.894 20.3202 107.282 19.4396 101.949 20.6918C96.616 21.9439 91.9828 25.2299 89.0361 29.8499ZM117.856 47.184C117.011 48.6217 115.89 49.8777 114.557 50.8793C113.223 51.8808 111.705 52.6083 110.089 53.0193C108.473 53.4303 106.791 53.5168 105.141 53.274C103.492 53.031 101.906 52.4636 100.477 51.6042C99.0482 50.7449 97.8033 49.6107 96.8151 48.2673C95.8267 46.9239 95.1144 45.3979 94.7193 43.7774C94.3242 42.1571 94.2541 40.4745 94.513 38.8269C94.772 37.1793 95.3549 35.5995 96.228 34.1787C97.9691 31.3456 100.758 29.3146 103.988 28.5269C107.218 27.7391 110.629 28.2585 113.478 29.9721C116.328 31.6856 118.387 34.4548 119.206 37.6778C120.026 40.9008 119.541 44.3171 117.856 47.184Z" fill="black"/>
</g>
<defs>
<clipPath id="clip0_1_659">
<rect width="94.002" height="22.0053" fill="white" transform="translate(0 45.7023) scale(2.00967) rotate(-14)"/>
</clipPath>
</defs>
</svg>
