<svg width="184" height="21" viewBox="0 0 184 21" fill="none" xmlns="http://www.w3.org/2000/svg">
<path d="M0 1.04389H4.7947L9.85789 13.6608H10.0743L15.1375 1.04389H19.9182V19.824H16.1613V7.6038H16.0051L11.2484 19.7338H8.67975L3.92312 7.55772H3.77084V19.824H0V1.04389ZM26.6063 20.0885C25.7948 20.1065 24.9894 19.9462 24.244 19.6176C23.5808 19.3211 23.0158 18.8342 22.6191 18.2171C22.2003 17.5198 21.9939 16.7103 22.022 15.8928C22.0019 15.2096 22.1462 14.5324 22.4447 13.9193C22.7152 13.4003 23.112 12.9595 23.5948 12.6369C24.1038 12.3003 24.6628 12.0519 25.2498 11.9036C25.891 11.7333 26.5442 11.6191 27.2054 11.559C28.0048 11.4728 28.652 11.3887 29.1429 11.3125C29.5176 11.2765 29.8802 11.1583 30.2088 10.9679C30.4352 10.8176 30.5635 10.5532 30.5474 10.2787V10.2246C30.5755 9.71564 30.3811 9.22074 30.0125 8.87611C29.5817 8.53349 29.0427 8.36318 28.4977 8.39925C27.9167 8.36919 27.3416 8.53149 26.8567 8.86209C26.468 9.1446 26.1815 9.55334 26.0473 10.0202L22.5109 9.72766C22.6752 8.90617 23.0398 8.14078 23.5728 7.50362C24.1198 6.85645 24.815 6.35954 25.5985 6.05499C26.5261 5.70035 27.5099 5.52803 28.5017 5.54807C29.2511 5.54807 29.9964 5.64424 30.7218 5.83459C31.393 6.0029 32.0261 6.29142 32.5952 6.69014C33.1402 7.06683 33.587 7.57575 33.8955 8.16883C34.2281 8.83403 34.3924 9.57137 34.3744 10.3167V19.824H30.7458V17.8724H30.6376C30.4172 18.3132 30.1167 18.706 29.75 19.0305C29.3533 19.3772 28.8944 19.6437 28.3995 19.81C27.8225 20.0043 27.2154 20.0985 26.6063 20.0885ZM27.7043 17.3956C28.2212 17.4056 28.7322 17.2874 29.193 17.0509C29.6057 16.8386 29.9564 16.518 30.2068 16.1193C30.4533 15.7265 30.5815 15.2677 30.5775 14.7989V13.2961C30.4232 13.3903 30.2589 13.4624 30.0886 13.5125C29.8822 13.5746 29.6498 13.6347 29.3913 13.6848C29.1349 13.7369 28.8764 13.783 28.6199 13.8231L27.9207 13.9313C27.5159 13.9834 27.1192 14.0916 26.7425 14.2519C26.436 14.3741 26.1675 14.5785 25.9631 14.8409C25.7708 15.1074 25.6746 15.432 25.6846 15.7606C25.6586 16.2395 25.873 16.6983 26.2517 16.9788C26.6824 17.2693 27.1894 17.4156 27.7043 17.3956ZM42.0483 20.0544C41.0425 20.0684 40.0547 19.7779 39.2072 19.2229C38.3135 18.6258 37.6103 17.7743 37.1815 16.7744C36.6605 15.5202 36.4161 14.1617 36.4622 12.7992C36.4161 11.4147 36.6766 10.0382 37.2256 8.77192C37.6584 7.78413 38.3616 6.94661 39.2512 6.35754C40.0868 5.82658 41.0545 5.55007 42.0383 5.55809C42.7055 5.53404 43.3687 5.67029 43.9738 5.95481C44.4587 6.18923 44.8915 6.52785 45.2401 6.94461C45.5326 7.29725 45.7791 7.68795 45.9714 8.10671H46.0897V1.04389H49.9046V19.824H46.1237V17.5579H45.9614C45.7631 17.9786 45.5086 18.3713 45.2061 18.72C44.8514 19.1207 44.4206 19.4433 43.9398 19.6677C43.3447 19.9382 42.6995 20.0704 42.0483 20.0544ZM43.2605 16.9508C43.8255 16.9688 44.3785 16.7845 44.8274 16.4338C45.2802 16.0511 45.6208 15.5482 45.8132 14.9832C46.0536 14.2779 46.1678 13.5346 46.1518 12.7892C46.1698 12.0459 46.0536 11.3065 45.8132 10.6073C45.6248 10.0442 45.2822 9.54733 44.8274 9.17465C44.3745 8.83203 43.8215 8.65571 43.2585 8.67174C42.6835 8.6517 42.1225 8.83804 41.6676 9.19669C41.2148 9.57538 40.8762 10.0783 40.6879 10.6453C40.4554 11.3346 40.3412 12.0599 40.3512 12.7892C40.3372 13.5266 40.4514 14.2619 40.6879 14.9592C40.8742 15.5302 41.2128 16.0391 41.6636 16.4278C42.1205 16.7845 42.6855 16.9668 43.2605 16.9448V16.9508ZM58.933 20.1005C57.6587 20.1365 56.3984 19.83 55.2763 19.2129C54.2625 18.6358 53.439 17.7622 52.914 16.7023C52.337 15.5061 52.0525 14.1817 52.0865 12.8473C52.0565 11.5269 52.341 10.2165 52.914 9.03039C53.435 7.96846 54.2445 7.08085 55.2423 6.47175C56.3162 5.8426 57.5384 5.52603 58.7747 5.55809C59.6423 5.55208 60.5038 5.70035 61.3193 5.99889C62.0927 6.28942 62.798 6.74424 63.3871 7.33331C63.9982 7.96846 64.469 8.72985 64.7636 9.56937C65.1102 10.5772 65.2765 11.6411 65.2564 12.7091V13.783H53.6193V11.3506H61.6639C61.6739 10.8297 61.5497 10.3127 61.3033 9.85389C61.0709 9.42511 60.7302 9.06646 60.3135 8.82001C59.8647 8.56555 59.3577 8.43731 58.8448 8.44733C58.3058 8.43731 57.7729 8.57957 57.306 8.85808C56.8692 9.12056 56.5066 9.49724 56.2601 9.94806C56.0057 10.4109 55.8714 10.9338 55.8714 11.4648V13.769C55.8554 14.3921 55.9856 15.0112 56.2521 15.5723C56.4925 16.0632 56.8692 16.4719 57.3361 16.7484C57.845 17.0329 58.418 17.1752 58.9971 17.1571C59.3938 17.1632 59.7885 17.101 60.1652 16.9748C60.5038 16.8626 60.8124 16.6763 61.0709 16.4278C61.3253 16.1754 61.5217 15.8688 61.6439 15.5262L65.1823 15.7646C65.016 16.6061 64.6393 17.3896 64.0843 18.0347C63.4993 18.7039 62.7659 19.2209 61.9444 19.5415C60.9847 19.9222 59.9628 20.1105 58.933 20.1005ZM74.7837 3.92312C74.2408 3.93514 73.7158 3.72476 73.3251 3.34006C72.9404 2.98943 72.722 2.48852 72.722 1.96156C72.722 1.4346 72.9404 0.933695 73.3251 0.583058C74.1486 -0.194353 75.4189 -0.194353 76.2424 0.583058C76.6291 0.931691 76.8495 1.4346 76.8495 1.96156C76.8555 2.49453 76.6331 3.00546 76.2424 3.3581C75.8497 3.73879 75.3247 3.94115 74.7837 3.92312ZM72.8623 19.824V5.74042H76.6872V19.824H72.8623ZM83.183 11.6952V19.824H79.3621V5.74042H83.0047V8.22293H83.167C83.4615 7.42347 83.9985 6.74023 84.7038 6.27539C85.4852 5.77849 86.3948 5.53004 87.3165 5.55809C88.1921 5.53605 89.0576 5.75845 89.821 6.19925C90.5363 6.63204 91.1134 7.26719 91.4821 8.02657C91.8948 8.90817 92.0972 9.87793 92.0731 10.8557V19.82H88.2502V11.545C88.2963 10.8096 88.0638 10.0843 87.603 9.52128C87.1322 9.02037 86.473 8.75589 85.7957 8.79196C85.3249 8.78595 84.86 8.90617 84.4453 9.13658C84.0506 9.365 83.732 9.70962 83.5276 10.1244C83.2952 10.6133 83.177 11.1522 83.183 11.6952ZM100.27 19.824V1.04389H112.424V4.31784H104.145V8.79997H111.625V12.0719H104.145V19.83L100.27 19.824ZM114.362 19.824V5.74042H118.076V8.19688H118.217C118.413 7.41145 118.858 6.71419 119.483 6.21328C120.072 5.75845 120.793 5.51601 121.533 5.52403C121.739 5.52603 121.945 5.53805 122.15 5.5621C122.346 5.58213 122.542 5.61619 122.735 5.66228V9.14059C122.49 9.07247 122.24 9.02438 121.987 8.99633C121.699 8.95425 121.408 8.93221 121.118 8.93021C120.593 8.92019 120.076 9.04842 119.615 9.30289C119.18 9.54332 118.82 9.90197 118.571 10.3368C118.313 10.7996 118.181 11.3246 118.191 11.8575V19.824H114.362ZM127.86 20.0885C127.047 20.1065 126.241 19.9462 125.496 19.6176C124.831 19.3231 124.264 18.8362 123.865 18.2171C123.446 17.5198 123.238 16.7103 123.268 15.8928C123.248 15.2096 123.392 14.5324 123.691 13.9193C123.961 13.4003 124.358 12.9595 124.841 12.6369C125.35 12.3003 125.909 12.0519 126.496 11.9036C127.137 11.7353 127.79 11.6191 128.449 11.559C129.251 11.4728 129.898 11.3887 130.389 11.3125C130.763 11.2745 131.128 11.1583 131.459 10.9679C131.683 10.8176 131.813 10.5532 131.795 10.2787V10.2246C131.827 9.71564 131.631 9.21873 131.262 8.87611C130.833 8.53349 130.297 8.36318 129.754 8.39925C129.17 8.36719 128.593 8.52948 128.109 8.86209C127.72 9.1446 127.433 9.55134 127.299 10.0202L123.765 9.72766C123.927 8.90617 124.29 8.14078 124.821 7.50362C125.376 6.85645 126.079 6.35954 126.866 6.05499C127.794 5.70035 128.78 5.52803 129.77 5.54807C130.513 5.54406 131.254 5.63623 131.976 5.82057C132.645 5.98887 133.28 6.2794 133.851 6.67612C134.394 7.05481 134.839 7.56173 135.149 8.1548C135.48 8.82201 135.642 9.56536 135.62 10.3127V19.824H132.006V17.8724H131.897C131.673 18.3152 131.364 18.708 130.992 19.0305C130.597 19.3772 130.138 19.6437 129.641 19.81C129.066 20.0023 128.465 20.0965 127.86 20.0885ZM128.966 17.3956C129.483 17.4056 129.994 17.2874 130.455 17.0509C130.87 16.8386 131.218 16.518 131.469 16.1193C131.711 15.7245 131.837 15.2657 131.829 14.7989V13.2961C131.677 13.3903 131.513 13.4624 131.34 13.5125C131.13 13.5746 130.902 13.6347 130.645 13.6848C130.389 13.7369 130.128 13.783 129.872 13.8231L129.168 13.9313C128.766 13.9854 128.371 14.0916 127.994 14.2519C127.688 14.3741 127.419 14.5765 127.215 14.8409C127.023 15.1074 126.924 15.432 126.934 15.7606C126.908 16.2395 127.123 16.7003 127.505 16.9788C127.936 17.2734 128.449 17.4176 128.966 17.3956ZM138.221 19.824V5.74042H141.864V8.22293H142.026C142.288 7.43349 142.791 6.74825 143.464 6.27138C144.935 5.31765 146.812 5.31765 148.285 6.27138C148.94 6.74023 149.411 7.42949 149.616 8.22092H149.756C150.036 7.41546 150.575 6.73222 151.287 6.2814C152.072 5.7825 152.986 5.53004 153.913 5.55408C155.083 5.508 156.22 5.96082 157.053 6.80235C157.857 7.63987 158.257 8.82201 158.257 10.3488V19.824H154.442V11.1242C154.492 10.475 154.27 9.83385 153.831 9.36099C153.418 8.96828 152.869 8.7579 152.306 8.77593C151.693 8.73986 151.098 8.98631 150.682 9.44715C150.275 9.94405 150.066 10.5772 150.098 11.2244V19.824H146.384V11.04C146.416 10.4329 146.207 9.83786 145.807 9.38904C145.406 8.97429 144.853 8.75189 144.284 8.77593C143.881 8.76791 143.484 8.88212 143.144 9.10052C142.797 9.32292 142.519 9.63749 142.336 10.0102C142.128 10.4389 142.026 10.9118 142.04 11.3887V19.824H138.221ZM167.181 20.1005C165.905 20.1365 164.645 19.83 163.521 19.2129C162.507 18.6338 161.683 17.7602 161.159 16.7023C160.583 15.5041 160.301 14.1817 160.333 12.8473C160.305 11.5269 160.587 10.2165 161.159 9.03039C161.679 7.96846 162.489 7.08085 163.487 6.47175C164.561 5.8426 165.785 5.52803 167.021 5.55809C167.889 5.55208 168.75 5.70035 169.568 5.99889C170.341 6.28942 171.046 6.74424 171.634 7.33331C172.247 7.96646 172.715 8.72985 173.008 9.56937C173.357 10.5772 173.525 11.6411 173.505 12.7091V13.783H161.866V11.3506H169.912C169.92 10.8297 169.796 10.3127 169.55 9.85389C169.319 9.4231 168.975 9.06646 168.558 8.82001C168.109 8.56555 167.602 8.43531 167.089 8.44733C166.55 8.43731 166.019 8.57957 165.552 8.85808C165.116 9.11855 164.753 9.49524 164.507 9.94806C164.252 10.4109 164.118 10.9338 164.118 11.4648V13.769C164.104 14.3921 164.234 15.0112 164.501 15.5723C164.739 16.0652 165.118 16.4739 165.585 16.7484C166.091 17.0329 166.665 17.1752 167.246 17.1571C167.64 17.1632 168.035 17.103 168.41 16.9748C168.748 16.8626 169.059 16.6763 169.317 16.4278C169.574 16.1754 169.768 15.8668 169.892 15.5262L173.431 15.7646C173.262 16.6061 172.884 17.3896 172.329 18.0347C171.744 18.7039 171.012 19.2189 170.193 19.5415C169.233 19.9222 168.209 20.1105 167.181 20.1005ZM175.627 19.824V5.74042H179.342V8.19688H179.486C179.68 7.41145 180.125 6.71218 180.75 6.21328C181.339 5.75845 182.06 5.51601 182.798 5.52403C183.004 5.52603 183.211 5.53805 183.417 5.5621C183.613 5.58213 183.808 5.61619 184 5.66228V9.14059C183.756 9.07247 183.507 9.02438 183.255 8.99633C182.966 8.95425 182.678 8.93221 182.387 8.93021C181.862 8.92019 181.343 9.04842 180.88 9.30289C180.448 9.54533 180.087 9.90197 179.838 10.3368C179.578 10.7996 179.446 11.3246 179.456 11.8575V19.824H175.627Z" fill="#222222"/>
</svg>
