<svg width="106" height="4" viewBox="0 0 106 4" fill="none" xmlns="http://www.w3.org/2000/svg">
<path d="M0.450586 3.24501L1.63873 1.41908C2.32034 0.371594 4.00055 0.471679 4.53032 1.59132L4.58533 1.70755C5.14979 2.90053 7.00049 2.85814 7.50004 1.6408L7.55186 1.51449C8.04686 0.30825 9.8974 0.30825 10.3924 1.51449C10.8874 2.72073 12.7379 2.72073 13.2329 1.51449C13.7279 0.30825 15.5783 0.30825 16.0733 1.51449C16.5683 2.72073 18.4189 2.72073 18.9139 1.51449C19.4088 0.30825 21.2594 0.30825 21.7544 1.51449C22.2494 2.72073 24.0999 2.72073 24.5949 1.51449C25.0899 0.30825 26.9404 0.30825 27.4354 1.51449C27.9304 2.72073 29.7809 2.72073 30.2759 1.51449C30.7709 0.30825 32.6214 0.30825 33.1164 1.51449C33.6114 2.72073 35.4619 2.72073 35.9569 1.51449C36.4519 0.30825 38.3025 0.30825 38.7974 1.51449C39.2924 2.72073 41.143 2.72073 41.638 1.51449C42.133 0.30825 43.9835 0.30825 44.4785 1.51449C44.9735 2.72073 46.824 2.72073 47.319 1.51449C47.814 0.30825 49.6645 0.30825 50.1595 1.51449C50.6545 2.72073 52.505 2.72073 53 1.51449C53.495 0.30825 55.3455 0.30825 55.8405 1.51449C56.3355 2.72073 58.1861 2.72073 58.681 1.51449C59.176 0.30825 61.0266 0.30825 61.5216 1.51449C62.0165 2.72073 63.8671 2.72073 64.3621 1.51449C64.8571 0.30825 66.7076 0.30825 67.2026 1.51449C67.6976 2.72073 69.5481 2.72073 70.0431 1.51449C70.5381 0.30825 72.3886 0.30825 72.8836 1.51449C73.3786 2.72073 75.2291 2.72073 75.7241 1.51449C76.2191 0.30825 78.0696 0.30825 78.5646 1.51449C79.0596 2.72073 80.9102 2.72073 81.4051 1.51449C81.9001 0.30825 83.7507 0.30825 84.2457 1.51449C84.7406 2.72073 86.5912 2.72073 87.0862 1.51449C87.5812 0.30825 89.4317 0.30825 89.9267 1.51449C90.4217 2.72073 92.2722 2.72073 92.7672 1.51449C93.2622 0.30825 95.1127 0.30825 95.6077 1.51449C96.1027 2.72073 97.9532 2.72073 98.4482 1.51449L98.5002 1.38817C98.9997 0.170835 100.85 0.128443 101.415 1.32141L101.556 1.61882C102.082 2.73104 103.714 2.90644 104.503 1.93566L105.55 0.649229" stroke="#FF4C00" stroke-width="0.447586" stroke-linecap="round"/>
</svg>
