<svg width="122" height="121" viewBox="0 0 122 121" fill="none" xmlns="http://www.w3.org/2000/svg">
<path d="M118.456 44.1397L118.24 43.7216L97.1731 2.31501C96.7477 1.50451 96.0767 0.849571 95.2561 0.444207C94.436 0.0474245 93.514 -0.0881893 92.6143 0.0556941C91.7147 0.199558 90.881 0.615973 90.2254 1.24875C89.5795 1.8966 89.1487 2.72782 88.9919 3.62924L81.4195 38.9529L36.2208 43.7034L21.4689 10.7262C21.1342 9.87148 20.5385 9.14411 19.7665 8.64759C18.9937 8.16511 18.0916 7.93132 17.1816 7.97782C16.2719 8.0243 15.3982 8.34883 14.6785 8.90759C13.9621 9.47635 13.4425 10.2556 13.1925 11.1355L1.16254 56.0012L1.04394 56.4547C-0.682401 62.9229 -0.259056 69.7769 2.25013 75.9834C4.7593 82.1899 9.21831 87.4124 14.9548 90.8634L15.0166 90.9015L15.1797 90.9934L42.3446 107.205L55.7955 115.325L63.9864 120.257C64.9449 120.838 66.0672 121.089 67.1819 120.972C68.2964 120.855 69.342 120.376 70.159 119.609L77.1455 113.081L88.6136 102.342L111.954 80.7068L112.012 80.6496C116.894 76.0818 120.161 70.0531 121.323 63.4694C122.485 56.8858 121.479 50.1028 118.456 44.1397Z" fill="black"/>
</svg>
