<svg width="97" height="90" viewBox="0 0 97 90" fill="none" xmlns="http://www.w3.org/2000/svg">
<path d="M96.9304 17.8405C97.6611 27.364 92.6388 41.1465 81.8571 59.1887C70.7354 78.0324 60.5887 88.0144 51.4241 89.1397C45.7463 89.8368 40.3014 85.186 35.0893 75.1869L23.6952 47.3382C19.4866 37.2097 15.7159 32.3595 12.375 32.7697C11.6569 32.8579 9.29616 34.7108 5.30727 38.2959L6.19581e-06 32.9547C4.2519 28.1829 8.46812 23.3794 12.6483 18.5447C18.3823 12.2185 22.8388 8.7181 26.0154 8.02534C33.4877 6.34793 38.7911 10.9544 41.9076 21.8471C45.2649 33.5937 47.4926 40.8699 48.5784 43.6773C51.9882 53.3354 55.0071 58 57.6231 57.6727C59.6556 57.4232 62.3145 53.8222 65.614 46.8867C68.9067 39.9458 70.4899 34.778 70.3632 31.3831C70.2651 25.7545 67.739 23.2412 62.7853 23.8494C60.3035 24.191 57.9166 25.0327 55.7691 26.3233C58.6477 10.0733 66.8524 1.33072 80.3955 0.0941288C90.4373 -0.829936 95.951 5.08526 96.9296 17.8344L96.9304 17.8405Z" fill="black"/>
</svg>
