<svg width="131" height="131" viewBox="0 0 131 131" fill="none" xmlns="http://www.w3.org/2000/svg">
<path d="M55.2551 0.814373C19.5488 6.46968 -4.84048 40.0378 0.814694 75.7432C6.46986 111.449 40.0386 135.837 75.7449 130.182C111.451 124.527 135.84 90.9584 130.185 55.253C124.53 19.5476 90.9614 -4.84093 55.2551 0.814373ZM92.2356 40.0456C92.884 50.4193 92.6135 75.9238 92.2923 87.7109C92.155 92.7056 90.6 94.6096 88.9489 95.07C85.2483 95.9876 81.9617 93.657 77.9602 91.8374C71.6737 88.9874 68.0706 87.171 61.9987 84.4195C54.9289 81.2294 58.7 78.2451 61.7928 73.9094C62.6094 72.7855 76.7818 55.0914 76.8901 53.6819C76.9025 53.469 76.8627 53.2563 76.7742 53.0623C76.6857 52.8684 76.5511 52.699 76.3823 52.5688C75.9429 52.3068 75.4459 52.5182 75.0034 52.6546C74.4417 52.8761 66.3385 60.326 50.5645 75.0248C48.2537 77.181 46.0684 78.4554 43.9883 78.7186C41.6494 79.0227 37.0561 78.4904 33.583 77.9133C29.3029 77.265 26.0206 77.0555 25.9208 74.7506C25.8658 73.5658 27.2985 72.1454 30.1441 70.4349C47.7311 59.2285 59.4195 51.8075 65.2841 48.2264C82.0782 37.8749 85.5604 35.9972 88.0185 35.6079C88.5359 35.526 89.7854 35.4607 90.6641 35.9846C91.3929 36.3996 91.6997 37.0804 91.8463 37.5876C91.8431 37.9859 92.1569 39.1298 92.2356 40.0456Z" fill="black"/>
</svg>
