<svg width="2688" height="912" viewBox="0 0 2688 912" fill="none" xmlns="http://www.w3.org/2000/svg">
<mask id="path-1-inside-1_1_644" fill="white">
<path d="M0 100C0 44.7716 44.7715 0 100 0H2588C2643.23 0 2688 44.7715 2688 100V811.12C2688 866.348 2643.23 911.12 2588 911.12H99.9999C44.7715 911.12 0 866.348 0 811.12V100Z"/>
</mask>
<path d="M100 2H2588V-2H100V2ZM2686 100V811.12H2690V100H2686ZM2588 909.12H99.9999V913.12H2588V909.12ZM2 811.12V100H-2V811.12H2ZM99.9999 909.12C45.876 909.12 2 865.244 2 811.12H-2C-2 867.453 43.6669 913.12 99.9999 913.12V909.12ZM2686 811.12C2686 865.244 2642.12 909.12 2588 909.12V913.12C2644.33 913.12 2690 867.453 2690 811.12H2686ZM2588 2C2642.12 2 2686 45.8761 2686 100H2690C2690 43.667 2644.33 -2 2588 -2V2ZM100 -2C43.667 -2 -2 43.6671 -2 100H2C2 45.8762 45.8761 2 100 2V-2Z" fill="white" mask="url(#path-1-inside-1_1_644)"/>
</svg>
