<svg width="295" height="40" viewBox="0 0 295 40" fill="none" xmlns="http://www.w3.org/2000/svg">
<path d="M3.25614e-06 5.24628V1.18241H28.3732V5.24628H16.4771V39.0133H11.8961V5.24628H3.25614e-06ZM42.1135 39.6044C39.3796 39.6044 37.0214 39.001 35.0387 37.7942C33.0683 36.575 31.5475 34.8756 30.4761 32.6959C29.417 30.5038 28.8875 27.9547 28.8875 25.0484C28.8875 22.1421 29.417 19.5806 30.4761 17.364C31.5475 15.135 33.0376 13.3986 34.9463 12.1549C36.8674 10.8987 39.1087 10.2707 41.6702 10.2707C43.148 10.2707 44.6073 10.517 46.0481 11.0096C47.4889 11.5022 48.8004 12.3026 49.9826 13.411C51.1649 14.507 52.1069 15.9601 52.8089 17.7704C53.5108 19.5806 53.8618 21.8096 53.8618 24.4573V26.3045H31.9908V22.5362H49.4285C49.4285 20.9353 49.1083 19.5068 48.4679 18.2507C47.8399 16.9945 46.9409 16.0032 45.771 15.2766C44.6134 14.5501 43.2465 14.1868 41.6702 14.1868C39.9338 14.1868 38.4314 14.6178 37.163 15.4798C35.9069 16.3296 34.9402 17.4379 34.2629 18.8048C33.5856 20.1718 33.2469 21.6372 33.2469 23.2012V25.7134C33.2469 27.8562 33.6163 29.6726 34.3552 31.1627C35.1064 32.6404 36.147 33.7672 37.477 34.5431C38.807 35.3066 40.3525 35.6883 42.1135 35.6883C43.2588 35.6883 44.2932 35.5282 45.2168 35.2081C46.1528 34.8756 46.9594 34.383 47.6367 33.7303C48.314 33.0653 48.8374 32.2402 49.2068 31.255L53.4185 32.4372C52.9751 33.8658 52.2301 35.1219 51.1833 36.2056C50.1366 37.2769 48.8435 38.1143 47.3042 38.7178C45.7648 39.3089 44.0346 39.6044 42.1135 39.6044ZM80.0708 16.9945L76.1547 18.1029C75.9084 17.4502 75.5451 16.816 75.0649 16.2002C74.5969 15.5722 73.9565 15.055 73.1438 14.6486C72.331 14.2422 71.2904 14.039 70.022 14.039C68.2856 14.039 66.8386 14.4392 65.681 15.2397C64.5358 16.0278 63.9631 17.0315 63.9631 18.2507C63.9631 19.3344 64.3572 20.1902 65.1453 20.8183C65.9335 21.4463 67.165 21.9697 68.8398 22.3884L73.0514 23.4228C75.5882 24.0386 77.4786 24.9807 78.7223 26.2491C79.9661 27.5052 80.588 29.1246 80.588 31.1073C80.588 32.7328 80.1201 34.1859 79.1842 35.4667C78.2605 36.7474 76.9675 37.7572 75.305 38.4961C73.6425 39.235 71.7091 39.6044 69.5048 39.6044C66.6108 39.6044 64.2156 38.9764 62.3191 37.7203C60.4226 36.4642 59.2219 34.6293 58.717 32.2156L62.8548 31.1811C63.2489 32.7082 63.9939 33.8534 65.0899 34.617C66.1982 35.3805 67.6452 35.7622 69.4309 35.7622C71.4628 35.7622 73.076 35.3312 74.2706 34.4692C75.4774 33.5948 76.0808 32.5481 76.0808 31.3289C76.0808 30.3437 75.736 29.5186 75.0464 28.8537C74.3568 28.1763 73.2977 27.6714 71.8692 27.3389L67.1403 26.2306C64.5419 25.6149 62.6331 24.6605 61.414 23.3674C60.2071 22.0621 59.6037 20.4304 59.6037 18.4723C59.6037 16.8714 60.0532 15.4552 60.9522 14.2237C61.8635 12.9923 63.1011 12.0255 64.6651 11.3236C66.2413 10.6217 68.027 10.2707 70.022 10.2707C72.8297 10.2707 75.0341 10.8864 76.635 12.1179C78.2482 13.3494 79.3935 14.9749 80.0708 16.9945ZM98.9695 10.6401V14.3346H84.2657V10.6401H98.9695ZM88.5512 3.8424H92.9106V30.8856C92.9106 32.1171 93.0892 33.0407 93.4463 33.6564C93.8158 34.2598 94.2837 34.6662 94.8502 34.8756C95.429 35.0726 96.0386 35.1711 96.6789 35.1711C97.1592 35.1711 97.5533 35.1465 97.8612 35.0972C98.169 35.0357 98.4153 34.9864 98.6 34.9495L99.4867 38.8655C99.1912 38.9764 98.7786 39.0872 98.2491 39.198C97.7195 39.3212 97.0484 39.3828 96.2356 39.3828C95.0041 39.3828 93.7973 39.118 92.6151 38.5885C91.4452 38.0589 90.4723 37.2523 89.6965 36.1686C88.933 35.0849 88.5512 33.718 88.5512 32.0678V3.8424ZM105.007 39.0133V10.6401H109.366V39.0133H105.007ZM107.224 5.91128C106.374 5.91128 105.641 5.62188 105.025 5.04308C104.422 4.46429 104.12 3.76851 104.12 2.95574C104.12 2.14296 104.422 1.44718 105.025 0.868384C105.641 0.289592 106.374 0.000195558 107.224 0.000195558C108.073 0.000195558 108.8 0.289592 109.403 0.868384C110.019 1.44718 110.327 2.14296 110.327 2.95574C110.327 3.76851 110.019 4.46429 109.403 5.04308C108.8 5.62188 108.073 5.91128 107.224 5.91128ZM116.831 39.0133V10.6401H121.042V15.0734H121.412C122.003 13.5587 122.957 12.3827 124.275 11.5453C125.593 10.6956 127.175 10.2707 129.022 10.2707C130.894 10.2707 132.452 10.6956 133.696 11.5453C134.952 12.3827 135.931 13.5587 136.633 15.0734H136.928C137.655 13.608 138.745 12.4442 140.198 11.5822C141.651 10.7079 143.394 10.2707 145.426 10.2707C147.962 10.2707 150.038 11.065 151.651 12.6536C153.264 14.2299 154.071 16.6867 154.071 20.024V39.0133H149.711V20.024C149.711 17.9305 149.139 16.4342 147.993 15.5353C146.848 14.6363 145.5 14.1868 143.948 14.1868C141.953 14.1868 140.407 14.7902 139.311 15.9971C138.215 17.1916 137.667 18.7063 137.667 20.5412V39.0133H133.234V19.5806C133.234 17.9674 132.711 16.6682 131.664 15.683C130.617 14.6855 129.269 14.1868 127.619 14.1868C126.486 14.1868 125.426 14.4885 124.441 15.0919C123.468 15.6953 122.68 16.5327 122.077 17.6041C121.486 18.6632 121.19 19.8885 121.19 21.2801V39.0133H116.831ZM173.048 39.6044C170.486 39.6044 168.239 38.9949 166.305 37.7757C164.384 36.5565 162.882 34.8509 161.798 32.6589C160.727 30.4669 160.191 27.9054 160.191 24.9745C160.191 22.019 160.727 19.439 161.798 17.2347C162.882 15.0303 164.384 13.3186 166.305 12.0994C168.239 10.8803 170.486 10.2707 173.048 10.2707C175.609 10.2707 177.851 10.8803 179.772 12.0994C181.705 13.3186 183.207 15.0303 184.279 17.2347C185.363 19.439 185.904 22.019 185.904 24.9745C185.904 27.9054 185.363 30.4669 184.279 32.6589C183.207 34.8509 181.705 36.5565 179.772 37.7757C177.851 38.9949 175.609 39.6044 173.048 39.6044ZM173.048 35.6883C174.994 35.6883 176.594 35.1896 177.851 34.1921C179.107 33.1946 180.036 31.8831 180.64 30.2575C181.243 28.632 181.545 26.871 181.545 24.9745C181.545 23.078 181.243 21.3109 180.64 19.673C180.036 18.0351 179.107 16.7113 177.851 15.7015C176.594 14.6917 174.994 14.1868 173.048 14.1868C171.102 14.1868 169.501 14.6917 168.245 15.7015C166.989 16.7113 166.059 18.0351 165.456 19.673C164.852 21.3109 164.551 23.078 164.551 24.9745C164.551 26.871 164.852 28.632 165.456 30.2575C166.059 31.8831 166.989 33.1946 168.245 34.1921C169.501 35.1896 171.102 35.6883 173.048 35.6883ZM196.398 21.9451V39.0133H192.039V10.6401H196.25V15.0734H196.62C197.285 13.6326 198.295 12.475 199.649 11.6007C201.004 10.714 202.753 10.2707 204.895 10.2707C206.817 10.2707 208.497 10.6648 209.938 11.4529C211.379 12.2287 212.5 13.411 213.3 14.9996C214.101 16.5758 214.501 18.5708 214.501 20.9845V39.0133H210.142V21.2801C210.142 19.0511 209.563 17.3147 208.405 16.0709C207.248 14.8148 205.659 14.1868 203.639 14.1868C202.248 14.1868 201.004 14.4885 199.908 15.0919C198.824 15.6953 197.968 16.5758 197.34 17.7334C196.712 18.891 196.398 20.2949 196.398 21.9451ZM221.947 39.0133V10.6401H226.306V39.0133H221.947ZM224.164 5.91128C223.314 5.91128 222.581 5.62188 221.965 5.04308C221.362 4.46429 221.06 3.76851 221.06 2.95574C221.06 2.14296 221.362 1.44718 221.965 0.868384C222.581 0.289592 223.314 0.000195558 224.164 0.000195558C225.013 0.000195558 225.74 0.289592 226.343 0.868384C226.959 1.44718 227.267 2.14296 227.267 2.95574C227.267 3.76851 226.959 4.46429 226.343 5.04308C225.74 5.62188 225.013 5.91128 224.164 5.91128ZM242.12 39.6783C240.322 39.6783 238.69 39.3397 237.225 38.6624C235.76 37.9727 234.596 36.9814 233.734 35.6883C232.872 34.383 232.441 32.8067 232.441 30.9595C232.441 29.3339 232.761 28.0163 233.401 27.0064C234.042 25.9843 234.898 25.1839 235.969 24.6051C237.04 24.0263 238.223 23.5953 239.516 23.312C240.821 23.0165 242.132 22.7825 243.45 22.6101C245.174 22.3884 246.572 22.2222 247.643 22.1113C248.727 21.9882 249.515 21.785 250.008 21.5017C250.513 21.2185 250.765 20.7259 250.765 20.024V19.8762C250.765 18.0536 250.266 16.6374 249.269 15.6276C248.284 14.6178 246.787 14.1129 244.78 14.1129C242.699 14.1129 241.067 14.5685 239.885 15.4798C238.703 16.3911 237.872 17.364 237.391 18.3984L233.254 16.9207C233.992 15.1966 234.978 13.8543 236.209 12.8937C237.453 11.9209 238.807 11.2436 240.273 10.8618C241.751 10.4677 243.204 10.2707 244.632 10.2707C245.544 10.2707 246.59 10.3815 247.773 10.6032C248.967 10.8125 250.119 11.2497 251.227 11.9147C252.348 12.5797 253.277 13.5834 254.016 14.9257C254.755 16.268 255.125 18.0659 255.125 20.3195V39.0133H250.765V35.1711H250.543C250.248 35.7869 249.755 36.4457 249.066 37.1476C248.376 37.8496 247.459 38.4468 246.313 38.9394C245.168 39.432 243.77 39.6783 242.12 39.6783ZM242.785 35.7622C244.509 35.7622 245.962 35.4236 247.145 34.7463C248.339 34.069 249.238 33.1946 249.841 32.1232C250.457 31.0518 250.765 29.925 250.765 28.7428V24.7528C250.58 24.9745 250.174 25.1777 249.546 25.3624C248.93 25.5348 248.216 25.6888 247.403 25.8242C246.603 25.9474 245.821 26.0582 245.057 26.1567C244.306 26.2429 243.696 26.3168 243.228 26.3784C242.095 26.5262 241.036 26.7663 240.051 27.0988C239.078 27.419 238.29 27.9054 237.687 28.5581C237.096 29.1985 236.8 30.0728 236.8 31.1811C236.8 32.6959 237.36 33.8411 238.481 34.617C239.614 35.3805 241.049 35.7622 242.785 35.7622ZM266.921 1.18241V39.0133H262.561V1.18241H266.921ZM294.483 16.9945L290.567 18.1029C290.32 17.4502 289.957 16.816 289.477 16.2002C289.009 15.5722 288.368 15.055 287.556 14.6486C286.743 14.2422 285.702 14.039 284.434 14.039C282.698 14.039 281.251 14.4392 280.093 15.2397C278.948 16.0278 278.375 17.0315 278.375 18.2507C278.375 19.3344 278.769 20.1902 279.557 20.8183C280.345 21.4463 281.577 21.9697 283.252 22.3884L287.463 23.4228C290 24.0386 291.891 24.9807 293.134 26.2491C294.378 27.5052 295 29.1246 295 31.1073C295 32.7328 294.532 34.1859 293.596 35.4667C292.672 36.7474 291.379 37.7572 289.717 38.4961C288.054 39.235 286.121 39.6044 283.917 39.6044C281.023 39.6044 278.628 38.9764 276.731 37.7203C274.835 36.4642 273.634 34.6293 273.129 32.2156L277.267 31.1811C277.661 32.7082 278.406 33.8534 279.502 34.617C280.61 35.3805 282.057 35.7622 283.843 35.7622C285.875 35.7622 287.488 35.3312 288.683 34.4692C289.889 33.5948 290.493 32.5481 290.493 31.3289C290.493 30.3437 290.148 29.5186 289.458 28.8537C288.769 28.1763 287.71 27.6714 286.281 27.3389L281.552 26.2306C278.954 25.6149 277.045 24.6605 275.826 23.3674C274.619 22.0621 274.016 20.4304 274.016 18.4723C274.016 16.8714 274.465 15.4552 275.364 14.2237C276.275 12.9923 277.513 12.0255 279.077 11.3236C280.653 10.6217 282.439 10.2707 284.434 10.2707C287.242 10.2707 289.446 10.8864 291.047 12.1179C292.66 13.3494 293.805 14.9749 294.483 16.9945Z" fill="url(#paint0_linear_1_635)"/>
<defs>
<linearGradient id="paint0_linear_1_635" x1="148.53" y1="53.0172" x2="148.53" y2="-11.0006" gradientUnits="userSpaceOnUse">
<stop stop-color="#676767"/>
<stop offset="1" stop-color="#3C3C3C"/>
</linearGradient>
</defs>
</svg>
