<svg width="673" height="119" viewBox="0 0 673 119" fill="none" xmlns="http://www.w3.org/2000/svg">
<path d="M18.1569 1.02283V22.8452H15.5996L3.70809 5.71123H3.49498V22.8452H0.852429V1.02283H3.40973L15.3438 18.1994H15.5569V1.02283H18.1569ZM29.9658 23.1862C28.3888 23.1862 27.0284 22.8381 25.8847 22.1419C24.7481 21.4387 23.8708 20.4584 23.2528 19.201C22.6419 17.9366 22.3365 16.4661 22.3365 14.7897C22.3365 13.1132 22.6419 11.6357 23.2528 10.357C23.8708 9.07124 24.7304 8.06963 25.8314 7.35217C26.9396 6.6276 28.2325 6.26531 29.71 6.26531C30.5625 6.26531 31.4042 6.40738 32.2354 6.69153C33.0665 6.97567 33.823 7.43741 34.505 8.07674C35.1869 8.70896 35.7304 9.54719 36.1353 10.5914C36.5402 11.6357 36.7426 12.9214 36.7426 14.4487V15.5142H24.1266V13.3405H34.1853C34.1853 12.4171 34.0006 11.593 33.6312 10.8685C33.2689 10.1439 32.7504 9.57205 32.0755 9.15294C31.4078 8.73382 30.6193 8.52426 29.71 8.52426C28.7084 8.52426 27.8418 8.77289 27.1101 9.27015C26.3855 9.7603 25.8279 10.3996 25.4372 11.1881C25.0465 11.9766 24.8511 12.822 24.8511 13.7241V15.1733C24.8511 16.4093 25.0643 17.4571 25.4905 18.3166C25.9238 19.1691 26.5241 19.819 27.2912 20.2666C28.0584 20.707 28.9499 20.9272 29.9658 20.9272C30.6264 20.9272 31.2231 20.8349 31.7559 20.6502C32.2958 20.4584 32.761 20.1742 33.1517 19.7977C33.5424 19.4141 33.8443 18.9382 34.0575 18.3699L36.4869 19.0518C36.2312 19.8759 35.8014 20.6004 35.1976 21.2256C34.5938 21.8436 33.8479 22.3266 32.9599 22.6747C32.072 23.0157 31.0739 23.1862 29.9658 23.1862ZM53.453 6.47842L47.4007 22.8452H44.8434L38.7911 6.47842H41.5189L46.0368 19.5207H46.2073L50.7252 6.47842H53.453ZM63.0482 23.1862C61.4712 23.1862 60.1109 22.8381 58.9672 22.1419C57.8306 21.4387 56.9533 20.4584 56.3353 19.201C55.7244 17.9366 55.4189 16.4661 55.4189 14.7897C55.4189 13.1132 55.7244 11.6357 56.3353 10.357C56.9533 9.07124 57.8129 8.06963 58.9139 7.35217C60.0221 6.6276 61.315 6.26531 62.7925 6.26531C63.6449 6.26531 64.4867 6.40738 65.3179 6.69153C66.149 6.97567 66.9055 7.43741 67.5875 8.07674C68.2694 8.70896 68.8128 9.54719 69.2177 10.5914C69.6227 11.6357 69.8251 12.9214 69.8251 14.4487V15.5142H57.2091V13.3405H67.2678C67.2678 12.4171 67.0831 11.593 66.7137 10.8685C66.3514 10.1439 65.8329 9.57205 65.158 9.15294C64.4903 8.73382 63.7018 8.52426 62.7925 8.52426C61.7909 8.52426 60.9243 8.77289 60.1926 9.27015C59.468 9.7603 58.9104 10.3996 58.5197 11.1881C58.129 11.9766 57.9336 12.822 57.9336 13.7241V15.1733C57.9336 16.4093 58.1467 17.4571 58.573 18.3166C59.0063 19.1691 59.6065 19.819 60.3737 20.2666C61.1409 20.707 62.0324 20.9272 63.0482 20.9272C63.7089 20.9272 64.3056 20.8349 64.8384 20.6502C65.3782 20.4584 65.8435 20.1742 66.2342 19.7977C66.6249 19.4141 66.9268 18.9382 67.1399 18.3699L69.5694 19.0518C69.3136 19.8759 68.8839 20.6004 68.2801 21.2256C67.6763 21.8436 66.9304 22.3266 66.0424 22.6747C65.1545 23.0157 64.1564 23.1862 63.0482 23.1862ZM73.6504 22.8452V6.47842H76.0798V8.95048H76.2503C76.5487 8.14067 77.0886 7.48358 77.87 6.97922C78.6514 6.47487 79.5322 6.22269 80.5125 6.22269C80.6972 6.22269 80.9281 6.22624 81.2051 6.23334C81.4822 6.24045 81.6917 6.2511 81.8338 6.26531V8.82262C81.7485 8.80131 81.5532 8.76934 81.2477 8.72672C80.9494 8.67699 80.6333 8.65213 80.2994 8.65213C79.5038 8.65213 78.7934 8.81907 78.1683 9.15294C77.5503 9.4797 77.0602 9.93433 76.6979 10.5168C76.3427 11.0922 76.1651 11.7493 76.1651 12.4881V22.8452H73.6504ZM93.2538 22.8452V6.47842H95.6832V9.03573H95.8963C96.2373 8.16198 96.7878 7.48358 97.5479 7.00054C98.308 6.51039 99.2208 6.26531 100.286 6.26531C101.366 6.26531 102.265 6.51039 102.982 7.00054C103.707 7.48358 104.271 8.16198 104.676 9.03573H104.847C105.266 8.19039 105.895 7.5191 106.733 7.02185C107.571 6.51749 108.576 6.26531 109.748 6.26531C111.212 6.26531 112.409 6.7235 113.339 7.63986C114.27 8.54913 114.735 9.9663 114.735 11.8914V22.8452H112.22V11.8914C112.22 10.6838 111.89 9.82068 111.229 9.30211C110.569 8.78355 109.791 8.52426 108.896 8.52426C107.745 8.52426 106.854 8.87234 106.221 9.5685C105.589 10.2575 105.273 11.1313 105.273 12.1897V22.8452H102.716V11.6357C102.716 10.7051 102.414 9.95565 101.81 9.38736C101.206 8.81196 100.428 8.52426 99.4765 8.52426C98.823 8.52426 98.2121 8.6983 97.6438 9.04638C97.0826 9.39446 96.628 9.87751 96.2799 10.4955C95.9389 11.1064 95.7684 11.8132 95.7684 12.616V22.8452H93.2538ZM119.333 22.8452V6.47842H121.848V22.8452H119.333ZM120.612 3.75063C120.121 3.75063 119.699 3.58369 119.344 3.24982C118.996 2.91595 118.821 2.5146 118.821 2.04576C118.821 1.57692 118.996 1.17556 119.344 0.84169C119.699 0.50782 120.121 0.340885 120.612 0.340885C121.102 0.340885 121.521 0.50782 121.869 0.84169C122.224 1.17556 122.402 1.57692 122.402 2.04576C122.402 2.5146 122.224 2.91595 121.869 3.24982C121.521 3.58369 121.102 3.75063 120.612 3.75063ZM138.047 10.1439L135.788 10.7832C135.646 10.4067 135.436 10.0409 135.159 9.68571C134.889 9.32342 134.52 9.02507 134.051 8.79065C133.582 8.55623 132.982 8.43902 132.25 8.43902C131.248 8.43902 130.414 8.66989 129.746 9.13163C129.085 9.58626 128.755 10.1652 128.755 10.8685C128.755 11.4936 128.982 11.9873 129.437 12.3496C129.892 12.7119 130.602 13.0138 131.568 13.2553L133.998 13.852C135.461 14.2072 136.551 14.7506 137.269 15.4823C137.986 16.2068 138.345 17.141 138.345 18.2846C138.345 19.2223 138.075 20.0606 137.535 20.7993C137.002 21.5381 136.256 22.1206 135.297 22.5468C134.338 22.973 133.223 23.1862 131.952 23.1862C130.282 23.1862 128.901 22.8239 127.807 22.0993C126.713 21.3747 126.02 20.3163 125.729 18.924L128.116 18.3273C128.343 19.2081 128.773 19.8688 129.405 20.3092C130.044 20.7496 130.879 20.9698 131.909 20.9698C133.081 20.9698 134.012 20.7212 134.701 20.2239C135.397 19.7196 135.745 19.1158 135.745 18.4125C135.745 17.8442 135.546 17.3683 135.148 16.9847C134.75 16.594 134.14 16.3027 133.316 16.1109L130.588 15.4716C129.089 15.1164 127.988 14.5659 127.285 13.82C126.588 13.067 126.24 12.1258 126.24 10.9963C126.24 10.0729 126.5 9.25594 127.018 8.54558C127.544 7.83521 128.258 7.27758 129.16 6.87267C130.069 6.46776 131.099 6.26531 132.25 6.26531C133.87 6.26531 135.141 6.62049 136.065 7.33085C136.995 8.04122 137.656 8.9789 138.047 10.1439ZM153.723 10.1439L151.464 10.7832C151.322 10.4067 151.113 10.0409 150.836 9.68571C150.566 9.32342 150.196 9.02507 149.728 8.79065C149.259 8.55623 148.659 8.43902 147.927 8.43902C146.925 8.43902 146.091 8.66989 145.423 9.13163C144.762 9.58626 144.432 10.1652 144.432 10.8685C144.432 11.4936 144.659 11.9873 145.114 12.3496C145.568 12.7119 146.279 13.0138 147.245 13.2553L149.674 13.852C151.138 14.2072 152.228 14.7506 152.946 15.4823C153.663 16.2068 154.022 17.141 154.022 18.2846C154.022 19.2223 153.752 20.0606 153.212 20.7993C152.679 21.5381 151.933 22.1206 150.974 22.5468C150.015 22.973 148.9 23.1862 147.628 23.1862C145.959 23.1862 144.577 22.8239 143.484 22.0993C142.39 21.3747 141.697 20.3163 141.406 18.924L143.793 18.3273C144.02 19.2081 144.45 19.8688 145.082 20.3092C145.721 20.7496 146.556 20.9698 147.586 20.9698C148.758 20.9698 149.689 20.7212 150.378 20.2239C151.074 19.7196 151.422 19.1158 151.422 18.4125C151.422 17.8442 151.223 17.3683 150.825 16.9847C150.427 16.594 149.816 16.3027 148.992 16.1109L146.265 15.4716C144.766 15.1164 143.665 14.5659 142.961 13.82C142.265 13.067 141.917 12.1258 141.917 10.9963C141.917 10.0729 142.176 9.25594 142.695 8.54558C143.221 7.83521 143.935 7.27758 144.837 6.87267C145.746 6.46776 146.776 6.26531 147.927 6.26531C149.546 6.26531 150.818 6.62049 151.741 7.33085C152.672 8.04122 153.333 8.9789 153.723 10.1439ZM171.062 23.2288C170.025 23.2288 169.084 23.0334 168.239 22.6427C167.393 22.2449 166.722 21.6731 166.225 20.9272C165.728 20.1742 165.479 19.265 165.479 18.1994C165.479 17.2617 165.664 16.5016 166.033 15.9191C166.402 15.3295 166.896 14.8678 167.514 14.5339C168.132 14.2001 168.814 13.9514 169.56 13.7881C170.313 13.6176 171.07 13.4826 171.83 13.3831C172.824 13.2553 173.63 13.1594 174.248 13.0954C174.874 13.0244 175.328 12.9072 175.612 12.7438C175.904 12.5804 176.049 12.2963 176.049 11.8914V11.8061C176.049 10.7548 175.762 9.93789 175.186 9.35539C174.618 8.77289 173.755 8.48164 172.597 8.48164C171.396 8.48164 170.455 8.74448 169.773 9.27015C169.091 9.79581 168.612 10.357 168.335 10.9537L165.948 10.1013C166.374 9.10676 166.942 8.33247 167.653 7.77838C168.37 7.2172 169.152 6.8265 169.997 6.60629C170.849 6.37897 171.688 6.26531 172.512 6.26531C173.037 6.26531 173.641 6.32924 174.323 6.45711C175.012 6.57787 175.676 6.83005 176.316 7.21364C176.962 7.59724 177.498 8.17619 177.925 8.95048C178.351 9.72478 178.564 10.7619 178.564 12.0619V22.8452H176.049V20.6288H175.921C175.751 20.984 175.467 21.3641 175.069 21.769C174.671 22.1739 174.142 22.5184 173.481 22.8026C172.821 23.0867 172.014 23.2288 171.062 23.2288ZM171.446 20.9698C172.441 20.9698 173.279 20.7745 173.961 20.3838C174.65 19.9931 175.168 19.4887 175.516 18.8707C175.872 18.2527 176.049 17.6027 176.049 16.9208V14.6192C175.943 14.747 175.708 14.8643 175.346 14.9708C174.991 15.0703 174.579 15.1591 174.11 15.2372C173.648 15.3082 173.197 15.3722 172.757 15.429C172.323 15.4787 171.972 15.5213 171.702 15.5569C171.048 15.6421 170.437 15.7806 169.869 15.9724C169.308 16.1571 168.853 16.4377 168.505 16.8142C168.164 17.1836 167.994 17.6879 167.994 18.3273C167.994 19.201 168.317 19.8617 168.963 20.3092C169.617 20.7496 170.444 20.9698 171.446 20.9698ZM185.668 12.9996V22.8452H183.154V6.47842H185.583V9.03573H185.796C186.18 8.2046 186.762 7.53686 187.544 7.0325C188.325 6.52104 189.334 6.26531 190.57 6.26531C191.678 6.26531 192.648 6.49263 193.479 6.94726C194.31 7.39479 194.956 8.07674 195.418 8.9931C195.88 9.90237 196.111 11.0532 196.111 12.4455V22.8452H193.596V12.616C193.596 11.3302 193.262 10.3286 192.594 9.61112C191.927 8.88655 191.01 8.52426 189.845 8.52426C189.043 8.52426 188.325 8.6983 187.693 9.04638C187.068 9.39446 186.574 9.90237 186.212 10.5701C185.85 11.2379 185.668 12.0477 185.668 12.9996ZM484.809 23.0157C484.284 23.0157 483.833 22.8274 483.456 22.4509C483.08 22.0744 482.891 21.6234 482.891 21.0977C482.891 20.572 483.08 20.1209 483.456 19.7444C483.833 19.368 484.284 19.1797 484.809 19.1797C485.335 19.1797 485.786 19.368 486.163 19.7444C486.539 20.1209 486.727 20.572 486.727 21.0977C486.727 21.4458 486.638 21.7654 486.461 22.0567C486.29 22.3479 486.06 22.5823 485.768 22.7599C485.484 22.9304 485.164 23.0157 484.809 23.0157ZM514.938 7.84232C514.703 7.12485 514.394 6.48197 514.011 5.91368C513.634 5.33829 513.183 4.84814 512.657 4.44323C512.139 4.03832 511.549 3.72932 510.888 3.51621C510.228 3.3031 509.503 3.19654 508.715 3.19654C507.422 3.19654 506.246 3.53041 505.188 4.19816C504.129 4.8659 503.288 5.84975 502.662 7.14971C502.037 8.44968 501.725 10.0444 501.725 11.934C501.725 13.8236 502.041 15.4183 502.673 16.7183C503.305 18.0183 504.161 19.0021 505.241 19.6699C506.321 20.3376 507.536 20.6715 508.885 20.6715C510.136 20.6715 511.237 20.4051 512.188 19.8723C513.147 19.3324 513.893 18.5723 514.426 17.592C514.966 16.6046 515.236 15.4432 515.236 14.1077L516.046 14.2782H509.482V11.934H517.793V14.2782C517.793 16.0754 517.41 17.6382 516.642 18.9666C515.882 20.295 514.831 21.325 513.488 22.0567C512.153 22.7812 510.619 23.1435 508.885 23.1435C506.953 23.1435 505.255 22.6889 503.792 21.7796C502.336 20.8704 501.199 19.5775 500.382 17.9011C499.572 16.2246 499.167 14.2356 499.167 11.934C499.167 10.2078 499.398 8.65568 499.86 7.27758C500.329 5.89237 500.99 4.71317 501.842 3.73997C502.694 2.76677 503.703 2.02089 504.868 1.50233C506.033 0.983763 507.315 0.72448 508.715 0.72448C509.866 0.72448 510.938 0.898519 511.933 1.2466C512.934 1.58757 513.826 2.07417 514.607 2.70639C515.396 3.33151 516.053 4.08094 516.578 4.95469C517.104 5.82133 517.466 6.78388 517.665 7.84232H514.938ZM528.84 23.1862C527.263 23.1862 525.903 22.8381 524.759 22.1419C523.623 21.4387 522.745 20.4584 522.127 19.201C521.516 17.9366 521.211 16.4661 521.211 14.7897C521.211 13.1132 521.516 11.6357 522.127 10.357C522.745 9.07124 523.605 8.06963 524.706 7.35217C525.814 6.6276 527.107 6.26531 528.585 6.26531C529.437 6.26531 530.279 6.40738 531.11 6.69153C531.941 6.97567 532.698 7.43741 533.379 8.07674C534.061 8.70896 534.605 9.54719 535.01 10.5914C535.415 11.6357 535.617 12.9214 535.617 14.4487V15.5142H523.001V13.3405H533.06C533.06 12.4171 532.875 11.593 532.506 10.8685C532.143 10.1439 531.625 9.57205 530.95 9.15294C530.282 8.73382 529.494 8.52426 528.585 8.52426C527.583 8.52426 526.716 8.77289 525.985 9.27015C525.26 9.7603 524.702 10.3996 524.312 11.1881C523.921 11.9766 523.726 12.822 523.726 13.7241V15.1733C523.726 16.4093 523.939 17.4571 524.365 18.3166C524.798 19.1691 525.399 19.819 526.166 20.2666C526.933 20.707 527.824 20.9272 528.84 20.9272C529.501 20.9272 530.098 20.8349 530.63 20.6502C531.17 20.4584 531.636 20.1742 532.026 19.7977C532.417 19.4141 532.719 18.9382 532.932 18.3699L535.361 19.0518C535.106 19.8759 534.676 20.6004 534.072 21.2256C533.468 21.8436 532.722 22.3266 531.834 22.6747C530.946 23.0157 529.948 23.1862 528.84 23.1862ZM546.56 6.47842V8.60951H538.079V6.47842H546.56ZM540.551 2.55722H543.065V18.1568C543.065 18.8671 543.168 19.3999 543.374 19.7551C543.587 20.1032 543.857 20.3376 544.184 20.4584C544.518 20.572 544.87 20.6288 545.239 20.6288C545.516 20.6288 545.743 20.6146 545.921 20.5862C546.099 20.5507 546.241 20.5223 546.347 20.501L546.859 22.7599C546.688 22.8239 546.45 22.8878 546.145 22.9517C545.839 23.0228 545.452 23.0583 544.983 23.0583C544.273 23.0583 543.577 22.9056 542.895 22.6001C542.22 22.2946 541.659 21.8294 541.211 21.2042C540.771 20.5791 540.551 19.7906 540.551 18.8387V2.55722ZM561.297 12.9996V22.8452H558.782V6.47842H561.211V9.03573H561.425C561.808 8.2046 562.391 7.53686 563.172 7.0325C563.953 6.52104 564.962 6.26531 566.198 6.26531C567.306 6.26531 568.276 6.49263 569.107 6.94726C569.938 7.39479 570.585 8.07674 571.046 8.9931C571.508 9.90237 571.739 11.0532 571.739 12.4455V22.8452H569.224V12.616C569.224 11.3302 568.89 10.3286 568.223 9.61112C567.555 8.88655 566.639 8.52426 565.474 8.52426C564.671 8.52426 563.953 8.6983 563.321 9.04638C562.696 9.39446 562.202 9.90237 561.84 10.5701C561.478 11.2379 561.297 12.0477 561.297 12.9996ZM582.983 23.1862C581.506 23.1862 580.209 22.8345 579.094 22.1313C577.986 21.428 577.119 20.4442 576.494 19.1797C575.876 17.9153 575.567 16.4377 575.567 14.747C575.567 13.0422 575.876 11.554 576.494 10.2824C577.119 9.01086 577.986 8.02346 579.094 7.3202C580.209 6.61694 581.506 6.26531 582.983 6.26531C584.461 6.26531 585.754 6.61694 586.862 7.3202C587.977 8.02346 588.844 9.01086 589.462 10.2824C590.087 11.554 590.399 13.0422 590.399 14.747C590.399 16.4377 590.087 17.9153 589.462 19.1797C588.844 20.4442 587.977 21.428 586.862 22.1313C585.754 22.8345 584.461 23.1862 582.983 23.1862ZM582.983 20.9272C584.106 20.9272 585.029 20.6395 585.754 20.0641C586.478 19.4887 587.015 18.7322 587.363 17.7945C587.711 16.8568 587.885 15.841 587.885 14.747C587.885 13.6531 587.711 12.6337 587.363 11.6889C587.015 10.7441 586.478 9.98051 585.754 9.39801C585.029 8.81551 584.106 8.52426 582.983 8.52426C581.861 8.52426 580.937 8.81551 580.213 9.39801C579.488 9.98051 578.952 10.7441 578.604 11.6889C578.256 12.6337 578.082 13.6531 578.082 14.747C578.082 15.841 578.256 16.8568 578.604 17.7945C578.952 18.7322 579.488 19.4887 580.213 20.0641C580.937 20.6395 581.861 20.9272 582.983 20.9272ZM601.356 6.47842V8.60951H592.874V6.47842H601.356ZM595.346 2.55722H597.861V18.1568C597.861 18.8671 597.964 19.3999 598.17 19.7551C598.383 20.1032 598.653 20.3376 598.98 20.4584C599.314 20.572 599.665 20.6288 600.035 20.6288C600.312 20.6288 600.539 20.6146 600.717 20.5862C600.894 20.5507 601.036 20.5223 601.143 20.501L601.654 22.7599C601.484 22.8239 601.246 22.8878 600.94 22.9517C600.635 23.0228 600.248 23.0583 599.779 23.0583C599.068 23.0583 598.372 22.9056 597.69 22.6001C597.016 22.2946 596.454 21.8294 596.007 21.2042C595.566 20.5791 595.346 19.7906 595.346 18.8387V2.55722ZM605.139 22.8452V6.47842H607.653V22.8452H605.139ZM606.417 3.75063C605.927 3.75063 605.504 3.58369 605.149 3.24982C604.801 2.91595 604.627 2.5146 604.627 2.04576C604.627 1.57692 604.801 1.17556 605.149 0.84169C605.504 0.50782 605.927 0.340885 606.417 0.340885C606.907 0.340885 607.326 0.50782 607.675 0.84169C608.03 1.17556 608.207 1.57692 608.207 2.04576C608.207 2.5146 608.03 2.91595 607.675 3.24982C607.326 3.58369 606.907 3.75063 606.417 3.75063ZM619.547 6.47842V8.60951H610.725V6.47842H619.547ZM613.367 22.8452V4.21947C613.367 3.28179 613.587 2.50039 614.028 1.87527C614.468 1.25015 615.04 0.781309 615.743 0.468749C616.447 0.15619 617.189 -9.02587e-05 617.97 -9.02587e-05C618.588 -9.02587e-05 619.093 0.0496355 619.483 0.149087C619.874 0.248537 620.165 0.340884 620.357 0.426128L619.633 2.59984C619.505 2.55722 619.327 2.50394 619.1 2.44001C618.88 2.37607 618.588 2.34411 618.226 2.34411C617.395 2.34411 616.795 2.55366 616.425 2.97278C616.063 3.39189 615.882 4.00636 615.882 4.81617V22.8452H613.367ZM623.072 22.8452V6.47842H625.586V22.8452H623.072ZM624.35 3.75063C623.86 3.75063 623.437 3.58369 623.082 3.24982C622.734 2.91595 622.56 2.5146 622.56 2.04576C622.56 1.57692 622.734 1.17556 623.082 0.84169C623.437 0.50782 623.86 0.340885 624.35 0.340885C624.84 0.340885 625.26 0.50782 625.608 0.84169C625.963 1.17556 626.14 1.57692 626.14 2.04576C626.14 2.5146 625.963 2.91595 625.608 3.24982C625.26 3.58369 624.84 3.75063 624.35 3.75063ZM637.054 23.1862C635.477 23.1862 634.117 22.8381 632.973 22.1419C631.837 21.4387 630.959 20.4584 630.341 19.201C629.73 17.9366 629.425 16.4661 629.425 14.7897C629.425 13.1132 629.73 11.6357 630.341 10.357C630.959 9.07124 631.819 8.06963 632.92 7.35217C634.028 6.6276 635.321 6.26531 636.799 6.26531C637.651 6.26531 638.493 6.40738 639.324 6.69153C640.155 6.97567 640.912 7.43741 641.593 8.07674C642.275 8.70896 642.819 9.54719 643.224 10.5914C643.629 11.6357 643.831 12.9214 643.831 14.4487V15.5142H631.215V13.3405H641.274C641.274 12.4171 641.089 11.593 640.72 10.8685C640.357 10.1439 639.839 9.57205 639.164 9.15294C638.496 8.73382 637.708 8.52426 636.799 8.52426C635.797 8.52426 634.93 8.77289 634.199 9.27015C633.474 9.7603 632.916 10.3996 632.526 11.1881C632.135 11.9766 631.94 12.822 631.94 13.7241V15.1733C631.94 16.4093 632.153 17.4571 632.579 18.3166C633.012 19.1691 633.613 19.819 634.38 20.2666C635.147 20.707 636.038 20.9272 637.054 20.9272C637.715 20.9272 638.312 20.8349 638.844 20.6502C639.384 20.4584 639.85 20.1742 640.24 19.7977C640.631 19.4141 640.933 18.9382 641.146 18.3699L643.575 19.0518C643.32 19.8759 642.89 20.6004 642.286 21.2256C641.682 21.8436 640.936 22.3266 640.048 22.6747C639.16 23.0157 638.162 23.1862 637.054 23.1862ZM653.837 23.1862C652.473 23.1862 651.269 22.8416 650.224 22.1526C649.18 21.4564 648.363 20.4761 647.774 19.2117C647.184 17.9401 646.889 16.4377 646.889 14.7044C646.889 12.9853 647.184 11.4936 647.774 10.2291C648.363 8.96469 649.184 7.98794 650.235 7.29889C651.286 6.60984 652.501 6.26531 653.879 6.26531C654.945 6.26531 655.787 6.4429 656.405 6.79808C657.03 7.14616 657.506 7.54396 657.832 7.99149C658.166 8.43192 658.426 8.7942 658.61 9.07835H658.823V1.02283H661.338V22.8452H658.909V20.3305H658.61C658.426 20.6288 658.163 21.0053 657.822 21.46C657.481 21.9075 656.994 22.3089 656.362 22.664C655.73 23.0121 654.888 23.1862 653.837 23.1862ZM654.178 20.9272C655.186 20.9272 656.039 20.6644 656.735 20.1387C657.431 19.6059 657.96 18.8707 658.323 17.933C658.685 16.9882 658.866 15.8978 658.866 14.6618C658.866 13.44 658.688 12.3709 658.333 11.4545C657.978 10.531 657.452 9.81357 656.756 9.30211C656.06 8.78355 655.2 8.52426 654.178 8.52426C653.112 8.52426 652.224 8.79775 651.514 9.34473C650.81 9.88461 650.281 10.6198 649.926 11.5504C649.578 12.4739 649.404 13.511 649.404 14.6618C649.404 15.8268 649.581 16.8852 649.937 17.8371C650.299 18.7819 650.832 19.5349 651.535 20.0961C652.245 20.6502 653.126 20.9272 654.178 20.9272ZM0.511454 66.8536V50.4868H3.02614V66.8536H0.511454ZM1.79011 47.759C1.29996 47.759 0.877291 47.5921 0.52211 47.2582C0.174032 46.9243 -6.85584e-06 46.523 -6.85584e-06 46.0542C-6.85584e-06 45.5853 0.174032 45.184 0.52211 44.8501C0.877291 44.5162 1.29996 44.3493 1.79011 44.3493C2.28026 44.3493 2.69937 44.5162 3.04745 44.8501C3.40263 45.184 3.58022 45.5853 3.58022 46.0542C3.58022 46.523 3.40263 46.9243 3.04745 47.2582C2.69937 47.5921 2.28026 47.759 1.79011 47.759ZM10.1466 57.0079V66.8536H7.63195V50.4868H10.0614V53.0441H10.2745C10.6581 52.213 11.2406 51.5453 12.022 51.0409C12.8034 50.5294 13.8121 50.2737 15.0481 50.2737C16.1563 50.2737 17.126 50.501 17.9571 50.9557C18.7882 51.4032 19.4346 52.0851 19.8964 53.0015C20.3581 53.9108 20.589 55.0616 20.589 56.4539V66.8536H18.0743V56.6244C18.0743 55.3386 17.7404 54.337 17.0727 53.6195C16.4049 52.8949 15.4886 52.5327 14.3236 52.5327C13.5209 52.5327 12.8034 52.7067 12.1712 53.0548C11.5461 53.4029 11.0524 53.9108 10.6901 54.5785C10.3278 55.2462 10.1466 56.0561 10.1466 57.0079ZM36.7773 54.1523L34.5183 54.7916C34.3762 54.4151 34.1667 54.0493 33.8896 53.6941C33.6197 53.3318 33.2503 53.0335 32.7815 52.799C32.3126 52.5646 31.7124 52.4474 30.9807 52.4474C29.9791 52.4474 29.1444 52.6783 28.4767 53.14C27.816 53.5947 27.4857 54.1736 27.4857 54.8769C27.4857 55.502 27.713 55.9957 28.1677 56.358C28.6223 56.7202 29.3326 57.0222 30.2987 57.2637L32.7282 57.8604C34.1915 58.2156 35.2819 58.759 35.9994 59.4907C36.7169 60.2152 37.0756 61.1494 37.0756 62.293C37.0756 63.2307 36.8057 64.069 36.2658 64.8077C35.733 65.5465 34.9871 66.129 34.0281 66.5552C33.0692 66.9814 31.9539 67.1946 30.6823 67.1946C29.013 67.1946 27.6313 66.8323 26.5374 66.1077C25.4434 65.3831 24.7508 64.3247 24.4596 62.9324L26.8464 62.3357C27.0737 63.2165 27.5035 63.8772 28.1357 64.3176C28.775 64.758 29.6097 64.9782 30.6397 64.9782C31.8118 64.9782 32.7424 64.7296 33.4314 64.2323C34.1276 63.728 34.4757 63.1242 34.4757 62.4209C34.4757 61.8526 34.2768 61.3767 33.879 60.9931C33.4812 60.6024 32.8703 60.3111 32.0462 60.1193L29.3184 59.48C27.8196 59.1248 26.7185 58.5743 26.0153 57.8284C25.3191 57.0754 24.971 56.1342 24.971 55.0047C24.971 54.0813 25.2303 53.2643 25.7489 52.554C26.2745 51.8436 26.9885 51.286 27.8906 50.8811C28.7999 50.4762 29.8299 50.2737 30.9807 50.2737C32.6003 50.2737 33.8719 50.6289 34.7953 51.3393C35.7259 52.0496 36.3866 52.9873 36.7773 54.1523ZM47.9788 50.4868V52.6179H39.4971V50.4868H47.9788ZM41.9691 46.5656H44.4838V62.1652C44.4838 62.8755 44.5868 63.4083 44.7928 63.7635C45.0059 64.1116 45.2759 64.346 45.6026 64.4668C45.9365 64.5804 46.2881 64.6372 46.6575 64.6372C46.9346 64.6372 47.1619 64.623 47.3395 64.5946C47.517 64.5591 47.6591 64.5307 47.7657 64.5094L48.2771 66.7683C48.1067 66.8323 47.8687 66.8962 47.5632 66.9601C47.2578 67.0312 46.8706 67.0667 46.4018 67.0667C45.6914 67.0667 44.9953 66.914 44.3133 66.6085C43.6385 66.303 43.0773 65.8378 42.6298 65.2126C42.1893 64.5875 41.9691 63.799 41.9691 62.8471V46.5656ZM56.5777 67.2372C55.5406 67.2372 54.5994 67.0418 53.754 66.6511C52.9087 66.2533 52.2374 65.6815 51.7402 64.9356C51.2429 64.1826 50.9943 63.2733 50.9943 62.2078C50.9943 61.2701 51.179 60.51 51.5484 59.9275C51.9177 59.3379 52.4114 58.8762 53.0295 58.5423C53.6475 58.2085 54.3294 57.9598 55.0753 57.7965C55.8283 57.626 56.5848 57.491 57.3449 57.3915C58.3394 57.2637 59.1457 57.1678 59.7637 57.1038C60.3888 57.0328 60.8435 56.9156 61.1276 56.7522C61.4188 56.5888 61.5645 56.3047 61.5645 55.8998V55.8145C61.5645 54.7632 61.2768 53.9463 60.7014 53.3638C60.1331 52.7813 59.27 52.49 58.1121 52.49C56.9116 52.49 55.9704 52.7529 55.2884 53.2785C54.6065 53.8042 54.127 54.3654 53.8499 54.9621L51.4631 54.1097C51.8893 53.1152 52.4576 52.3409 53.168 51.7868C53.8855 51.2256 54.6669 50.8349 55.5122 50.6147C56.3646 50.3874 57.2028 50.2737 58.0269 50.2737C58.5525 50.2737 59.1563 50.3376 59.8383 50.4655C60.5273 50.5863 61.1915 50.8384 61.8309 51.222C62.4773 51.6056 63.0136 52.1846 63.4398 52.9589C63.866 53.7332 64.0792 54.7703 64.0792 56.0703V66.8536H61.5645V64.6372H61.4366C61.2661 64.9924 60.982 65.3725 60.5842 65.7774C60.1864 66.1823 59.6572 66.5268 58.9965 66.811C58.3359 67.0951 57.5296 67.2372 56.5777 67.2372ZM56.9613 64.9782C57.9558 64.9782 58.7941 64.7829 59.476 64.3922C60.1651 64.0015 60.6836 63.4971 61.0317 62.8791C61.3869 62.2611 61.5645 61.6111 61.5645 60.9291V58.6276C61.4579 58.7554 61.2235 58.8726 60.8612 58.9792C60.506 59.0787 60.094 59.1674 59.6252 59.2456C59.1634 59.3166 58.7124 59.3806 58.2719 59.4374C57.8386 59.4871 57.487 59.5297 57.2171 59.5653C56.5635 59.6505 55.9526 59.789 55.3843 59.9808C54.8231 60.1655 54.3685 60.4461 54.0204 60.8226C53.6794 61.192 53.509 61.6963 53.509 62.3357C53.509 63.2094 53.8322 63.8701 54.4786 64.3176C55.1321 64.758 55.9597 64.9782 56.9613 64.9782ZM71.1837 57.0079V66.8536H68.669V50.4868H71.0984V53.0441H71.3115C71.6951 52.213 72.2776 51.5453 73.059 51.0409C73.8404 50.5294 74.8491 50.2737 76.0852 50.2737C77.1933 50.2737 78.163 50.501 78.9941 50.9557C79.8252 51.4032 80.4717 52.0851 80.9334 53.0015C81.3951 53.9108 81.626 55.0616 81.626 56.4539V66.8536H79.1113V56.6244C79.1113 55.3386 78.7775 54.337 78.1097 53.6195C77.442 52.8949 76.5256 52.5327 75.3606 52.5327C74.5579 52.5327 73.8404 52.7067 73.2082 53.0548C72.5831 53.4029 72.0894 53.9108 71.7271 54.5785C71.3648 55.2462 71.1837 56.0561 71.1837 57.0079ZM93.339 50.4868V52.6179H84.8573V50.4868H93.339ZM87.3293 46.5656H89.844V62.1652C89.844 62.8755 89.947 63.4083 90.153 63.7635C90.3661 64.1116 90.6361 64.346 90.9628 64.4668C91.2967 64.5804 91.6483 64.6372 92.0177 64.6372C92.2948 64.6372 92.5221 64.623 92.6997 64.5946C92.8773 64.5591 93.0193 64.5307 93.1259 64.5094L93.6374 66.7683C93.4669 66.8323 93.2289 66.8962 92.9234 66.9601C92.618 67.0312 92.2308 67.0667 91.762 67.0667C91.0516 67.0667 90.3555 66.914 89.6735 66.6085C88.9987 66.303 88.4375 65.8378 87.99 65.2126C87.5495 64.5875 87.3293 63.799 87.3293 62.8471V46.5656ZM99.988 45.0312V66.8536H97.4733V45.0312H99.988ZM106.213 72.9911C105.787 72.9911 105.407 72.9556 105.073 72.8846C104.739 72.8206 104.509 72.7567 104.381 72.6928L105.02 70.4764C105.631 70.6327 106.171 70.6895 106.64 70.6469C107.108 70.6043 107.524 70.3947 107.886 70.0182C108.256 69.6489 108.593 69.0486 108.899 68.2175L109.367 66.9388L103.315 50.4868H106.043L110.561 63.5291H110.731L115.249 50.4868H117.977L111.03 69.2404C110.717 70.0857 110.33 70.7854 109.868 71.3395C109.407 71.9007 108.87 72.3163 108.259 72.5862C107.655 72.8561 106.974 72.9911 106.213 72.9911ZM124.021 63.8701L123.851 65.0208C123.73 65.8307 123.545 66.6973 123.297 67.6208C123.055 68.5442 122.803 69.4144 122.54 70.2314C122.277 71.0483 122.061 71.6983 121.89 72.1813H119.972C120.065 71.7267 120.185 71.1264 120.335 70.3805C120.484 69.6346 120.633 68.8 120.782 67.8765C120.938 66.9601 121.066 66.0225 121.166 65.0635L121.294 63.8701H124.021ZM143.982 67.1946C142.405 67.1946 141.044 66.8465 139.901 66.1503C138.764 65.4471 137.887 64.4668 137.269 63.2094C136.658 61.945 136.352 60.4745 136.352 58.7981C136.352 57.1216 136.658 55.6441 137.269 54.3654C137.887 53.0796 138.746 52.078 139.847 51.3606C140.956 50.636 142.248 50.2737 143.726 50.2737C144.578 50.2737 145.42 50.4158 146.251 50.6999C147.082 50.9841 147.839 51.4458 148.521 52.0851C149.203 52.7174 149.746 53.5556 150.151 54.5998C150.556 55.6441 150.759 56.9298 150.759 58.4571V59.5226H138.142V57.3489H148.201C148.201 56.4254 148.017 55.6014 147.647 54.8769C147.285 54.1523 146.766 53.5804 146.091 53.1613C145.424 52.7422 144.635 52.5327 143.726 52.5327C142.724 52.5327 141.858 52.7813 141.126 53.2785C140.401 53.7687 139.844 54.408 139.453 55.1965C139.062 55.985 138.867 56.8304 138.867 57.7325V59.1817C138.867 60.4177 139.08 61.4655 139.506 62.325C139.94 63.1774 140.54 63.8274 141.307 64.275C142.074 64.7154 142.966 64.9356 143.982 64.9356C144.642 64.9356 145.239 64.8432 145.772 64.6586C146.312 64.4668 146.777 64.1826 147.168 63.8061C147.558 63.4225 147.86 62.9466 148.073 62.3783L150.503 63.0602C150.247 63.8843 149.817 64.6088 149.213 65.2339C148.61 65.852 147.864 66.335 146.976 66.6831C146.088 67.0241 145.09 67.1946 143.982 67.1946ZM157.099 57.0079V66.8536H154.584V50.4868H157.013V53.0441H157.226C157.61 52.213 158.192 51.5453 158.974 51.0409C159.755 50.5294 160.764 50.2737 162 50.2737C163.108 50.2737 164.078 50.501 164.909 50.9557C165.74 51.4032 166.386 52.0851 166.848 53.0015C167.31 53.9108 167.541 55.0616 167.541 56.4539V66.8536H165.026V56.6244C165.026 55.3386 164.692 54.337 164.025 53.6195C163.357 52.8949 162.44 52.5327 161.275 52.5327C160.473 52.5327 159.755 52.7067 159.123 53.0548C158.498 53.4029 158.004 53.9108 157.642 54.5785C157.28 55.2462 157.099 56.0561 157.099 57.0079ZM183.729 54.1523L181.47 54.7916C181.328 54.4151 181.119 54.0493 180.841 53.6941C180.572 53.3318 180.202 53.0335 179.733 52.799C179.264 52.5646 178.664 52.4474 177.933 52.4474C176.931 52.4474 176.096 52.6783 175.429 53.14C174.768 53.5947 174.438 54.1736 174.438 54.8769C174.438 55.502 174.665 55.9957 175.12 56.358C175.574 56.7202 176.285 57.0222 177.251 57.2637L179.68 57.8604C181.143 58.2156 182.234 58.759 182.951 59.4907C183.669 60.2152 184.027 61.1494 184.027 62.293C184.027 63.2307 183.758 64.069 183.218 64.8077C182.685 65.5465 181.939 66.129 180.98 66.5552C180.021 66.9814 178.906 67.1946 177.634 67.1946C175.965 67.1946 174.583 66.8323 173.489 66.1077C172.395 65.3831 171.703 64.3247 171.411 62.9324L173.798 62.3357C174.026 63.2165 174.455 63.8772 175.088 64.3176C175.727 64.758 176.562 64.9782 177.592 64.9782C178.764 64.9782 179.694 64.7296 180.383 64.2323C181.079 63.728 181.428 63.1242 181.428 62.4209C181.428 61.8526 181.229 61.3767 180.831 60.9931C180.433 60.6024 179.822 60.3111 178.998 60.1193L176.27 59.48C174.771 59.1248 173.67 58.5743 172.967 57.8284C172.271 57.0754 171.923 56.1342 171.923 55.0047C171.923 54.0813 172.182 53.2643 172.701 52.554C173.226 51.8436 173.94 51.286 174.842 50.8811C175.752 50.4762 176.782 50.2737 177.933 50.2737C179.552 50.2737 180.824 50.6289 181.747 51.3393C182.678 52.0496 183.338 52.9873 183.729 54.1523ZM198.127 60.162V50.4868H200.642V66.8536H198.127V64.0832H197.957C197.573 64.9143 196.976 65.6211 196.167 66.2036C195.357 66.779 194.334 67.0667 193.098 67.0667C192.075 67.0667 191.166 66.8429 190.37 66.3954C189.575 65.9408 188.949 65.2588 188.495 64.3495C188.04 63.4332 187.813 62.2788 187.813 60.8865V50.4868H190.328V60.716C190.328 61.9095 190.661 62.8613 191.329 63.5717C192.004 64.2821 192.863 64.6372 193.908 64.6372C194.533 64.6372 195.169 64.4774 195.815 64.1577C196.469 63.8381 197.016 63.3479 197.456 62.6873C197.904 62.0267 198.127 61.1849 198.127 60.162ZM205.248 66.8536V50.4868H207.677V52.9589H207.848C208.146 52.1491 208.686 51.492 209.467 50.9876C210.249 50.4833 211.13 50.2311 212.11 50.2311C212.295 50.2311 212.525 50.2346 212.802 50.2417C213.08 50.2488 213.289 50.2595 213.431 50.2737V52.831C213.346 52.8097 213.151 52.7777 212.845 52.7351C212.547 52.6854 212.231 52.6605 211.897 52.6605C211.101 52.6605 210.391 52.8275 209.766 53.1613C209.148 53.4881 208.658 53.9427 208.295 54.5252C207.94 55.1006 207.762 55.7577 207.762 56.4965V66.8536H205.248ZM216.412 66.8536V50.4868H218.927V66.8536H216.412ZM217.691 47.759C217.201 47.759 216.778 47.5921 216.423 47.2582C216.075 46.9243 215.901 46.523 215.901 46.0542C215.901 45.5853 216.075 45.184 216.423 44.8501C216.778 44.5162 217.201 44.3493 217.691 44.3493C218.181 44.3493 218.6 44.5162 218.948 44.8501C219.303 45.184 219.481 45.5853 219.481 46.0542C219.481 46.523 219.303 46.9243 218.948 47.2582C218.6 47.5921 218.181 47.759 217.691 47.759ZM226.047 57.0079V66.8536H223.533V50.4868H225.962V53.0441H226.175C226.559 52.213 227.141 51.5453 227.923 51.0409C228.704 50.5294 229.713 50.2737 230.949 50.2737C232.057 50.2737 233.027 50.501 233.858 50.9557C234.689 51.4032 235.335 52.0851 235.797 53.0015C236.259 53.9108 236.49 55.0616 236.49 56.4539V66.8536H233.975V56.6244C233.975 55.3386 233.641 54.337 232.973 53.6195C232.306 52.8949 231.389 52.5327 230.224 52.5327C229.421 52.5327 228.704 52.7067 228.072 53.0548C227.447 53.4029 226.953 53.9108 226.591 54.5785C226.228 55.2462 226.047 56.0561 226.047 57.0079ZM247.691 73.3321C246.476 73.3321 245.432 73.1758 244.558 72.8632C243.685 72.5578 242.957 72.1529 242.374 71.6485C241.799 71.1513 241.34 70.6185 240.999 70.0502L243.003 68.6437C243.23 68.942 243.518 69.283 243.866 69.6666C244.214 70.0573 244.69 70.3947 245.294 70.6789C245.905 70.9701 246.704 71.1158 247.691 71.1158C249.012 71.1158 250.103 70.7961 250.962 70.1568C251.822 69.5174 252.252 68.5158 252.252 67.1519V63.8274H252.038C251.854 64.1258 251.591 64.4952 251.25 64.9356C250.916 65.3689 250.433 65.7561 249.801 66.097C249.176 66.4309 248.33 66.5978 247.265 66.5978C245.944 66.5978 244.757 66.2853 243.706 65.6602C242.662 65.035 241.834 64.1258 241.223 62.9324C240.619 61.739 240.318 60.2898 240.318 58.585C240.318 56.9085 240.612 55.4487 241.202 54.2056C241.792 52.9553 242.612 51.9892 243.663 51.3073C244.715 50.6182 245.929 50.2737 247.307 50.2737C248.373 50.2737 249.218 50.4513 249.843 50.8065C250.476 51.1546 250.959 51.5524 251.293 51.9999C251.634 52.4403 251.896 52.8026 252.081 53.0867H252.337V50.4868H254.766V67.3224C254.766 68.7289 254.447 69.8726 253.807 70.7535C253.175 71.6414 252.323 72.2914 251.25 72.7034C250.184 73.1225 248.998 73.3321 247.691 73.3321ZM247.606 64.3389C248.615 64.3389 249.467 64.108 250.163 63.6463C250.859 63.1846 251.389 62.5204 251.751 61.6537C252.113 60.7871 252.294 59.7499 252.294 58.5423C252.294 57.3631 252.117 56.3224 251.761 55.4203C251.406 54.5181 250.881 53.8113 250.184 53.2999C249.488 52.7884 248.629 52.5327 247.606 52.5327C246.54 52.5327 245.652 52.8026 244.942 53.3425C244.239 53.8824 243.709 54.6069 243.354 55.5162C243.006 56.4254 242.832 57.4342 242.832 58.5423C242.832 59.6789 243.01 60.6841 243.365 61.5578C243.727 62.4245 244.26 63.1064 244.963 63.6037C245.674 64.0938 246.554 64.3389 247.606 64.3389ZM629.177 67.2372C628.14 67.2372 627.199 67.0418 626.354 66.6511C625.508 66.2533 624.837 65.6815 624.34 64.9356C623.842 64.1826 623.594 63.2733 623.594 62.2078C623.594 61.2701 623.778 60.51 624.148 59.9275C624.517 59.3379 625.011 58.8762 625.629 58.5423C626.247 58.2085 626.929 57.9598 627.675 57.7965C628.428 57.626 629.184 57.491 629.944 57.3915C630.939 57.2637 631.745 57.1678 632.363 57.1038C632.988 57.0328 633.443 56.9156 633.727 56.7522C634.018 56.5888 634.164 56.3047 634.164 55.8998V55.8145C634.164 54.7632 633.876 53.9463 633.301 53.3638C632.733 52.7813 631.869 52.49 630.712 52.49C629.511 52.49 628.57 52.7529 627.888 53.2785C627.206 53.8042 626.726 54.3654 626.449 54.9621L624.063 54.1097C624.489 53.1152 625.057 52.3409 625.767 51.7868C626.485 51.2256 627.266 50.8349 628.112 50.6147C628.964 50.3874 629.802 50.2737 630.626 50.2737C631.152 50.2737 631.756 50.3376 632.438 50.4655C633.127 50.5863 633.791 50.8384 634.43 51.222C635.077 51.6056 635.613 52.1846 636.039 52.9589C636.466 53.7332 636.679 54.7703 636.679 56.0703V66.8536H634.164V64.6372H634.036C633.866 64.9924 633.581 65.3725 633.184 65.7774C632.786 66.1823 632.257 66.5268 631.596 66.811C630.935 67.0951 630.129 67.2372 629.177 67.2372ZM629.561 64.9782C630.555 64.9782 631.394 64.7829 632.075 64.3922C632.765 64.0015 633.283 63.4971 633.631 62.8791C633.986 62.2611 634.164 61.6111 634.164 60.9291V58.6276C634.057 58.7554 633.823 58.8726 633.461 58.9792C633.106 59.0787 632.694 59.1674 632.225 59.2456C631.763 59.3166 631.312 59.3806 630.871 59.4374C630.438 59.4871 630.086 59.5297 629.817 59.5653C629.163 59.6505 628.552 59.789 627.984 59.9808C627.423 60.1655 626.968 60.4461 626.62 60.8226C626.279 61.192 626.108 61.6963 626.108 62.3357C626.108 63.2094 626.432 63.8701 627.078 64.3176C627.732 64.758 628.559 64.9782 629.561 64.9782ZM643.783 57.0079V66.8536H641.268V50.4868H643.698V53.0441H643.911C644.295 52.213 644.877 51.5453 645.659 51.0409C646.44 50.5294 647.449 50.2737 648.685 50.2737C649.793 50.2737 650.762 50.501 651.594 50.9557C652.425 51.4032 653.071 52.0851 653.533 53.0015C653.995 53.9108 654.225 55.0616 654.225 56.4539V66.8536H651.711V56.6244C651.711 55.3386 651.377 54.337 650.709 53.6195C650.041 52.8949 649.125 52.5327 647.96 52.5327C647.157 52.5327 646.44 52.7067 645.808 53.0548C645.183 53.4029 644.689 53.9108 644.327 54.5785C643.964 55.2462 643.783 56.0561 643.783 57.0079ZM665.001 67.1946C663.637 67.1946 662.433 66.85 661.389 66.161C660.344 65.4648 659.527 64.4845 658.938 63.2201C658.348 61.9485 658.053 60.4461 658.053 58.7128C658.053 56.9937 658.348 55.502 658.938 54.2375C659.527 52.9731 660.348 51.9963 661.399 51.3073C662.451 50.6182 663.665 50.2737 665.043 50.2737C666.109 50.2737 666.951 50.4513 667.569 50.8065C668.194 51.1546 668.67 51.5524 668.997 51.9999C669.33 52.4403 669.59 52.8026 669.774 53.0867H669.988V45.0312H672.502V66.8536H670.073V64.3389H669.774C669.59 64.6372 669.327 65.0137 668.986 65.4684C668.645 65.9159 668.158 66.3173 667.526 66.6724C666.894 67.0205 666.052 67.1946 665.001 67.1946ZM665.342 64.9356C666.35 64.9356 667.203 64.6728 667.899 64.1471C668.595 63.6143 669.124 62.8791 669.487 61.9414C669.849 60.9966 670.03 59.9062 670.03 58.6702C670.03 57.4484 669.853 56.3793 669.497 55.4629C669.142 54.5394 668.617 53.822 667.92 53.3105C667.224 52.7919 666.365 52.5327 665.342 52.5327C664.276 52.5327 663.388 52.8062 662.678 53.3531C661.975 53.893 661.445 54.6282 661.09 55.5588C660.742 56.4823 660.568 57.5194 660.568 58.6702C660.568 59.8352 660.746 60.8936 661.101 61.8455C661.463 62.7903 661.996 63.5433 662.699 64.1045C663.41 64.6586 664.29 64.9356 665.342 64.9356ZM0.511454 112.862V96.4956H2.9409V98.9677H3.11138C3.40973 98.1578 3.94961 97.5008 4.73101 96.9964C5.51241 96.492 6.39326 96.2399 7.37356 96.2399C7.55825 96.2399 7.78912 96.2434 8.06616 96.2505C8.3432 96.2576 8.55276 96.2683 8.69483 96.2825V98.8398C8.60959 98.8185 8.41424 98.7865 8.10879 98.7439C7.81043 98.6942 7.49432 98.6693 7.16045 98.6693C6.36484 98.6693 5.65448 98.8362 5.02936 99.1701C4.41135 99.4969 3.9212 99.9515 3.55891 100.534C3.20373 101.109 3.02614 101.766 3.02614 102.505V112.862H0.511454ZM18.0397 113.203C16.4627 113.203 15.1023 112.855 13.9586 112.159C12.822 111.456 11.9447 110.476 11.3267 109.218C10.7158 107.954 10.4104 106.483 10.4104 104.807C10.4104 103.13 10.7158 101.653 11.3267 100.374C11.9447 99.0884 12.8043 98.0868 13.9053 97.3693C15.0135 96.6448 16.3064 96.2825 17.7839 96.2825C18.6364 96.2825 19.4781 96.4246 20.3093 96.7087C21.1404 96.9928 21.8969 97.4546 22.5789 98.0939C23.2608 98.7261 23.8043 99.5644 24.2092 100.609C24.6141 101.653 24.8165 102.939 24.8165 104.466V105.531H12.2005V103.358H22.2592C22.2592 102.434 22.0745 101.61 21.7051 100.886C21.3428 100.161 20.8243 99.5892 20.1494 99.1701C19.4817 98.751 18.6932 98.5414 17.7839 98.5414C16.7823 98.5414 15.9157 98.7901 15.184 99.2873C14.4594 99.7775 13.9018 100.417 13.5111 101.205C13.1204 101.994 12.925 102.839 12.925 103.741V105.19C12.925 106.426 13.1382 107.474 13.5644 108.334C13.9977 109.186 14.5979 109.836 15.3651 110.284C16.1323 110.724 17.0238 110.944 18.0397 110.944C18.7003 110.944 19.297 110.852 19.8298 110.667C20.3696 110.476 20.8349 110.191 21.2256 109.815C21.6163 109.431 21.9182 108.955 22.1313 108.387L24.5608 109.069C24.3051 109.893 23.8753 110.618 23.2715 111.243C22.6677 111.861 21.9218 112.344 21.0338 112.692C20.1459 113.033 19.1478 113.203 18.0397 113.203ZM33.4581 113.246C32.421 113.246 31.4797 113.051 30.6344 112.66C29.7891 112.262 29.1178 111.69 28.6205 110.944C28.1233 110.191 27.8746 109.282 27.8746 108.217C27.8746 107.279 28.0593 106.519 28.4287 105.936C28.7981 105.347 29.2918 104.885 29.9098 104.551C30.5278 104.217 31.2098 103.969 31.9557 103.805C32.7086 103.635 33.4652 103.5 34.2253 103.4C35.2198 103.272 36.026 103.177 36.6441 103.113C37.2692 103.042 37.7238 102.924 38.008 102.761C38.2992 102.598 38.4448 102.313 38.4448 101.909V101.823C38.4448 100.772 38.1571 99.9551 37.5817 99.3726C37.0134 98.7901 36.1504 98.4988 34.9925 98.4988C33.792 98.4988 32.8507 98.7617 32.1688 99.2873C31.4868 99.813 31.0073 100.374 30.7303 100.971L28.3435 100.118C28.7697 99.1239 29.338 98.3496 30.0483 97.7956C30.7658 97.2344 31.5472 96.8437 32.3925 96.6235C33.245 96.3961 34.0832 96.2825 34.9072 96.2825C35.4329 96.2825 36.0367 96.3464 36.7186 96.4743C37.4077 96.595 38.0719 96.8472 38.7112 97.2308C39.3576 97.6144 39.894 98.1934 40.3202 98.9677C40.7464 99.742 40.9595 100.779 40.9595 102.079V112.862H38.4448V110.646H38.317C38.1465 111.001 37.8623 111.381 37.4645 111.786C37.0667 112.191 36.5375 112.536 35.8769 112.82C35.2162 113.104 34.41 113.246 33.4581 113.246ZM33.8417 110.987C34.8362 110.987 35.6744 110.792 36.3564 110.401C37.0454 110.01 37.564 109.506 37.9121 108.888C38.2672 108.27 38.4448 107.62 38.4448 106.938V104.636C38.3383 104.764 38.1039 104.881 37.7416 104.988C37.3864 105.087 36.9744 105.176 36.5055 105.254C36.0438 105.325 35.5927 105.389 35.1523 105.446C34.719 105.496 34.3673 105.539 34.0974 105.574C33.4439 105.659 32.833 105.798 32.2647 105.99C31.7035 106.174 31.2489 106.455 30.9008 106.831C30.5598 107.201 30.3893 107.705 30.3893 108.344C30.3893 109.218 30.7125 109.879 31.359 110.326C32.0125 110.767 32.8401 110.987 33.8417 110.987ZM51.7295 113.203C50.3656 113.203 49.1615 112.859 48.1173 112.17C47.0731 111.474 46.2562 110.493 45.6666 109.229C45.077 107.957 44.7822 106.455 44.7822 104.722C44.7822 103.003 45.077 101.511 45.6666 100.246C46.2562 98.9819 47.0766 98.0051 48.128 97.3161C49.1793 96.627 50.394 96.2825 51.7721 96.2825C52.8377 96.2825 53.6794 96.4601 54.2975 96.8153C54.9226 97.1633 55.3985 97.5611 55.7253 98.0087C56.0592 98.4491 56.3184 98.8114 56.5031 99.0955H56.7162V91.04H59.2309V112.862H56.8015V110.348H56.5031C56.3184 110.646 56.0556 111.023 55.7146 111.477C55.3737 111.925 54.8871 112.326 54.2548 112.681C53.6226 113.029 52.7808 113.203 51.7295 113.203ZM52.0705 110.944C53.0792 110.944 53.9316 110.682 54.6278 110.156C55.3239 109.623 55.8532 108.888 56.2154 107.95C56.5777 107.005 56.7589 105.915 56.7589 104.679C56.7589 103.457 56.5813 102.388 56.2261 101.472C55.8709 100.548 55.3452 99.8307 54.6491 99.3193C53.9529 98.8007 53.0934 98.5414 52.0705 98.5414C51.0049 98.5414 50.117 98.8149 49.4066 99.3619C48.7034 99.9018 48.1741 100.637 47.819 101.568C47.4709 102.491 47.2968 103.528 47.2968 104.679C47.2968 105.844 47.4744 106.902 47.8296 107.854C48.1919 108.799 48.7247 109.552 49.4279 110.113C50.1383 110.667 51.0191 110.944 52.0705 110.944ZM65.8053 119C65.3791 119 64.9991 118.964 64.6652 118.893C64.3313 118.829 64.1005 118.765 63.9726 118.702L64.6119 116.485C65.2228 116.641 65.7627 116.698 66.2316 116.656C66.7004 116.613 67.116 116.404 67.4782 116.027C67.8476 115.658 68.1851 115.057 68.4905 114.226L68.9594 112.948L62.9071 96.4956H65.6349L70.1528 109.538H70.3232L74.8412 96.4956H77.5689L70.6216 115.249C70.309 116.095 69.9219 116.794 69.4602 117.348C68.9984 117.909 68.4621 118.325 67.8512 118.595C67.2474 118.865 66.5654 119 65.8053 119ZM81.6953 113.033C81.1696 113.033 80.7185 112.845 80.342 112.468C79.9655 112.092 79.7773 111.641 79.7773 111.115C79.7773 110.589 79.9655 110.138 80.342 109.762C80.7185 109.385 81.1696 109.197 81.6953 109.197C82.2209 109.197 82.672 109.385 83.0485 109.762C83.425 110.138 83.6132 110.589 83.6132 111.115C83.6132 111.463 83.5245 111.783 83.3469 112.074C83.1764 112.365 82.9455 112.6 82.6543 112.777C82.3701 112.948 82.0504 113.033 81.6953 113.033Z" fill="black" fill-opacity="0.5"/>
<path d="M209.145 22.8452V6.47842H211.66V22.8452H209.145ZM210.424 3.75063C209.934 3.75063 209.511 3.58369 209.156 3.24982C208.808 2.91595 208.634 2.5146 208.634 2.04576C208.634 1.57692 208.808 1.17556 209.156 0.84169C209.511 0.50782 209.934 0.340885 210.424 0.340885C210.914 0.340885 211.333 0.50782 211.681 0.84169C212.036 1.17556 212.214 1.57692 212.214 2.04576C212.214 2.5146 212.036 2.91595 211.681 3.24982C211.333 3.58369 210.914 3.75063 210.424 3.75063ZM216.266 22.8452V6.47842H218.695V9.03573H218.908C219.249 8.16198 219.8 7.48358 220.56 7.00054C221.32 6.51039 222.233 6.26531 223.298 6.26531C224.378 6.26531 225.276 6.51039 225.994 7.00054C226.718 7.48358 227.283 8.16198 227.688 9.03573H227.859C228.278 8.19039 228.906 7.5191 229.745 7.02185C230.583 6.51749 231.588 6.26531 232.76 6.26531C234.223 6.26531 235.42 6.7235 236.351 7.63986C237.282 8.54913 237.747 9.9663 237.747 11.8914V22.8452H235.232V11.8914C235.232 10.6838 234.902 9.82068 234.241 9.30211C233.581 8.78355 232.803 8.52426 231.908 8.52426C230.757 8.52426 229.865 8.87234 229.233 9.5685C228.601 10.2575 228.285 11.1313 228.285 12.1897V22.8452H225.728V11.6357C225.728 10.7051 225.426 9.95565 224.822 9.38736C224.218 8.81196 223.44 8.52426 222.488 8.52426C221.835 8.52426 221.224 8.6983 220.656 9.04638C220.094 9.39446 219.64 9.87751 219.292 10.4955C218.951 11.1064 218.78 11.8132 218.78 12.616V22.8452H216.266ZM242.345 28.9827V6.47842H244.774V9.07835H245.072C245.257 8.7942 245.513 8.43192 245.84 7.99149C246.174 7.54396 246.65 7.14616 247.268 6.79808C247.893 6.4429 248.738 6.26531 249.804 6.26531C251.182 6.26531 252.396 6.60984 253.448 7.29889C254.499 7.98794 255.319 8.96469 255.909 10.2291C256.499 11.4936 256.793 12.9853 256.793 14.7044C256.793 16.4377 256.499 17.9401 255.909 19.2117C255.319 20.4761 254.503 21.4564 253.458 22.1526C252.414 22.8416 251.21 23.1862 249.846 23.1862C248.795 23.1862 247.953 23.0121 247.321 22.664C246.689 22.3089 246.202 21.9075 245.861 21.46C245.52 21.0053 245.257 20.6288 245.072 20.3305H244.859V28.9827H242.345ZM244.817 14.6618C244.817 15.8978 244.998 16.9882 245.36 17.933C245.722 18.8707 246.252 19.6059 246.948 20.1387C247.644 20.6644 248.496 20.9272 249.505 20.9272C250.556 20.9272 251.434 20.6502 252.137 20.0961C252.847 19.5349 253.38 18.7819 253.735 17.8371C254.098 16.8852 254.279 15.8268 254.279 14.6618C254.279 13.511 254.101 12.4739 253.746 11.5504C253.398 10.6198 252.869 9.88461 252.158 9.34473C251.455 8.79775 250.571 8.52426 249.505 8.52426C248.482 8.52426 247.623 8.78355 246.927 9.30211C246.23 9.81357 245.705 10.531 245.35 11.4545C244.994 12.3709 244.817 13.44 244.817 14.6618ZM267.278 23.1862C265.801 23.1862 264.504 22.8345 263.389 22.1313C262.281 21.428 261.414 20.4442 260.789 19.1797C260.171 17.9153 259.862 16.4377 259.862 14.747C259.862 13.0422 260.171 11.554 260.789 10.2824C261.414 9.01086 262.281 8.02346 263.389 7.3202C264.504 6.61694 265.801 6.26531 267.278 6.26531C268.756 6.26531 270.049 6.61694 271.157 7.3202C272.272 8.02346 273.139 9.01086 273.757 10.2824C274.382 11.554 274.695 13.0422 274.695 14.747C274.695 16.4377 274.382 17.9153 273.757 19.1797C273.139 20.4442 272.272 21.428 271.157 22.1313C270.049 22.8345 268.756 23.1862 267.278 23.1862ZM267.278 20.9272C268.401 20.9272 269.324 20.6395 270.049 20.0641C270.773 19.4887 271.31 18.7322 271.658 17.7945C272.006 16.8568 272.18 15.841 272.18 14.747C272.18 13.6531 272.006 12.6337 271.658 11.6889C271.31 10.7441 270.773 9.98051 270.049 9.39801C269.324 8.81551 268.401 8.52426 267.278 8.52426C266.156 8.52426 265.233 8.81551 264.508 9.39801C263.783 9.98051 263.247 10.7441 262.899 11.6889C262.551 12.6337 262.377 13.6531 262.377 14.747C262.377 15.841 262.551 16.8568 262.899 17.7945C263.247 18.7322 263.783 19.4887 264.508 20.0641C265.233 20.6395 266.156 20.9272 267.278 20.9272ZM278.533 22.8452V6.47842H280.963V8.95048H281.133C281.432 8.14067 281.971 7.48358 282.753 6.97922C283.534 6.47487 284.415 6.22269 285.395 6.22269C285.58 6.22269 285.811 6.22624 286.088 6.23334C286.365 6.24045 286.575 6.2511 286.717 6.26531V8.82262C286.631 8.80131 286.436 8.76934 286.131 8.72672C285.832 8.67699 285.516 8.65213 285.182 8.65213C284.387 8.65213 283.676 8.81907 283.051 9.15294C282.433 9.4797 281.943 9.93433 281.581 10.5168C281.226 11.0922 281.048 11.7493 281.048 12.4881V22.8452H278.533ZM297.841 6.47842V8.60951H289.359V6.47842H297.841ZM291.831 2.55722H294.346V18.1568C294.346 18.8671 294.449 19.3999 294.655 19.7551C294.868 20.1032 295.138 20.3376 295.465 20.4584C295.799 20.572 296.15 20.6288 296.52 20.6288C296.797 20.6288 297.024 20.6146 297.202 20.5862C297.379 20.5507 297.521 20.5223 297.628 20.501L298.139 22.7599C297.969 22.8239 297.731 22.8878 297.425 22.9517C297.12 23.0228 296.733 23.0583 296.264 23.0583C295.554 23.0583 294.857 22.9056 294.175 22.6001C293.501 22.2946 292.939 21.8294 292.492 21.2042C292.051 20.5791 291.831 19.7906 291.831 18.8387V2.55722ZM306.44 23.2288C305.403 23.2288 304.461 23.0334 303.616 22.6427C302.771 22.2449 302.1 21.6731 301.602 20.9272C301.105 20.1742 300.856 19.265 300.856 18.1994C300.856 17.2617 301.041 16.5016 301.41 15.9191C301.78 15.3295 302.274 14.8678 302.892 14.5339C303.51 14.2001 304.192 13.9514 304.937 13.7881C305.69 13.6176 306.447 13.4826 307.207 13.3831C308.202 13.2553 309.008 13.1594 309.626 13.0954C310.251 13.0244 310.706 12.9072 310.99 12.7438C311.281 12.5804 311.427 12.2963 311.427 11.8914V11.8061C311.427 10.7548 311.139 9.93789 310.564 9.35539C309.995 8.77289 309.132 8.48164 307.974 8.48164C306.774 8.48164 305.832 8.74448 305.151 9.27015C304.469 9.79581 303.989 10.357 303.712 10.9537L301.325 10.1013C301.751 9.10676 302.32 8.33247 303.03 7.77838C303.748 7.2172 304.529 6.8265 305.374 6.60629C306.227 6.37897 307.065 6.26531 307.889 6.26531C308.415 6.26531 309.018 6.32924 309.7 6.45711C310.389 6.57787 311.054 6.83005 311.693 7.21364C312.339 7.59724 312.876 8.17619 313.302 8.95048C313.728 9.72478 313.941 10.7619 313.941 12.0619V22.8452H311.427V20.6288H311.299C311.128 20.984 310.844 21.3641 310.446 21.769C310.048 22.1739 309.519 22.5184 308.859 22.8026C308.198 23.0867 307.392 23.2288 306.44 23.2288ZM306.823 20.9698C307.818 20.9698 308.656 20.7745 309.338 20.3838C310.027 19.9931 310.546 19.4887 310.894 18.8707C311.249 18.2527 311.427 17.6027 311.427 16.9208V14.6192C311.32 14.747 311.086 14.8643 310.723 14.9708C310.368 15.0703 309.956 15.1591 309.487 15.2372C309.026 15.3082 308.574 15.3722 308.134 15.429C307.701 15.4787 307.349 15.5213 307.079 15.5569C306.426 15.6421 305.815 15.7806 305.246 15.9724C304.685 16.1571 304.231 16.4377 303.883 16.8142C303.542 17.1836 303.371 17.6879 303.371 18.3273C303.371 19.201 303.694 19.8617 304.341 20.3092C304.994 20.7496 305.822 20.9698 306.823 20.9698ZM321.046 12.9996V22.8452H318.531V6.47842H320.961V9.03573H321.174C321.557 8.2046 322.14 7.53686 322.921 7.0325C323.703 6.52104 324.711 6.26531 325.947 6.26531C327.055 6.26531 328.025 6.49263 328.856 6.94726C329.687 7.39479 330.334 8.07674 330.796 8.9931C331.257 9.90237 331.488 11.0532 331.488 12.4455V22.8452H328.973V12.616C328.973 11.3302 328.64 10.3286 327.972 9.61112C327.304 8.88655 326.388 8.52426 325.223 8.52426C324.42 8.52426 323.703 8.6983 323.07 9.04638C322.445 9.39446 321.952 9.90237 321.589 10.5701C321.227 11.2379 321.046 12.0477 321.046 12.9996ZM343.201 6.47842V8.60951H334.719V6.47842H343.201ZM337.191 2.55722H339.706V18.1568C339.706 18.8671 339.809 19.3999 340.015 19.7551C340.228 20.1032 340.498 20.3376 340.825 20.4584C341.159 20.572 341.51 20.6288 341.88 20.6288C342.157 20.6288 342.384 20.6146 342.562 20.5862C342.739 20.5507 342.881 20.5223 342.988 20.501L343.499 22.7599C343.329 22.8239 343.091 22.8878 342.786 22.9517C342.48 23.0228 342.093 23.0583 341.624 23.0583C340.914 23.0583 340.218 22.9056 339.536 22.6001C338.861 22.2946 338.3 21.8294 337.852 21.2042C337.412 20.5791 337.191 19.7906 337.191 18.8387V2.55722ZM355.423 22.8452V6.47842H357.852V9.03573H358.065C358.406 8.16198 358.957 7.48358 359.717 7.00054C360.477 6.51039 361.39 6.26531 362.456 6.26531C363.535 6.26531 364.434 6.51039 365.151 7.00054C365.876 7.48358 366.441 8.16198 366.846 9.03573H367.016C367.435 8.19039 368.064 7.5191 368.902 7.02185C369.74 6.51749 370.745 6.26531 371.918 6.26531C373.381 6.26531 374.578 6.7235 375.508 7.63986C376.439 8.54913 376.904 9.9663 376.904 11.8914V22.8452H374.39V11.8914C374.39 10.6838 374.059 9.82068 373.399 9.30211C372.738 8.78355 371.96 8.52426 371.065 8.52426C369.914 8.52426 369.023 8.87234 368.391 9.5685C367.758 10.2575 367.442 11.1313 367.442 12.1897V22.8452H364.885V11.6357C364.885 10.7051 364.583 9.95565 363.979 9.38736C363.375 8.81196 362.598 8.52426 361.646 8.52426C360.992 8.52426 360.381 8.6983 359.813 9.04638C359.252 9.39446 358.797 9.87751 358.449 10.4955C358.108 11.1064 357.938 11.8132 357.938 12.616V22.8452H355.423ZM388.364 23.1862C386.787 23.1862 385.427 22.8381 384.283 22.1419C383.147 21.4387 382.269 20.4584 381.651 19.201C381.04 17.9366 380.735 16.4661 380.735 14.7897C380.735 13.1132 381.04 11.6357 381.651 10.357C382.269 9.07124 383.129 8.06963 384.23 7.35217C385.338 6.6276 386.631 6.26531 388.108 6.26531C388.961 6.26531 389.803 6.40738 390.634 6.69153C391.465 6.97567 392.221 7.43741 392.903 8.07674C393.585 8.70896 394.129 9.54719 394.534 10.5914C394.939 11.6357 395.141 12.9214 395.141 14.4487V15.5142H382.525V13.3405H392.584C392.584 12.4171 392.399 11.593 392.03 10.8685C391.667 10.1439 391.149 9.57205 390.474 9.15294C389.806 8.73382 389.018 8.52426 388.108 8.52426C387.107 8.52426 386.24 8.77289 385.509 9.27015C384.784 9.7603 384.226 10.3996 383.836 11.1881C383.445 11.9766 383.25 12.822 383.25 13.7241V15.1733C383.25 16.4093 383.463 17.4571 383.889 18.3166C384.322 19.1691 384.923 19.819 385.69 20.2666C386.457 20.707 387.348 20.9272 388.364 20.9272C389.025 20.9272 389.622 20.8349 390.154 20.6502C390.694 20.4584 391.159 20.1742 391.55 19.7977C391.941 19.4141 392.243 18.9382 392.456 18.3699L394.885 19.0518C394.63 19.8759 394.2 20.6004 393.596 21.2256C392.992 21.8436 392.246 22.3266 391.358 22.6747C390.47 23.0157 389.472 23.1862 388.364 23.1862ZM410.56 10.1439L408.301 10.7832C408.158 10.4067 407.949 10.0409 407.672 9.68571C407.402 9.32342 407.033 9.02507 406.564 8.79065C406.095 8.55623 405.495 8.43902 404.763 8.43902C403.761 8.43902 402.927 8.66989 402.259 9.13163C401.598 9.58626 401.268 10.1652 401.268 10.8685C401.268 11.4936 401.495 11.9873 401.95 12.3496C402.405 12.7119 403.115 13.0138 404.081 13.2553L406.51 13.852C407.974 14.2072 409.064 14.7506 409.782 15.4823C410.499 16.2068 410.858 17.141 410.858 18.2846C410.858 19.2223 410.588 20.0606 410.048 20.7993C409.515 21.5381 408.769 22.1206 407.81 22.5468C406.851 22.973 405.736 23.1862 404.465 23.1862C402.795 23.1862 401.414 22.8239 400.32 22.0993C399.226 21.3747 398.533 20.3163 398.242 18.924L400.629 18.3273C400.856 19.2081 401.286 19.8688 401.918 20.3092C402.557 20.7496 403.392 20.9698 404.422 20.9698C405.594 20.9698 406.525 20.7212 407.214 20.2239C407.91 19.7196 408.258 19.1158 408.258 18.4125C408.258 17.8442 408.059 17.3683 407.661 16.9847C407.263 16.594 406.653 16.3027 405.828 16.1109L403.101 15.4716C401.602 15.1164 400.501 14.5659 399.798 13.82C399.101 13.067 398.753 12.1258 398.753 10.9963C398.753 10.0729 399.013 9.25594 399.531 8.54558C400.057 7.83521 400.771 7.27758 401.673 6.87267C402.582 6.46776 403.612 6.26531 404.763 6.26531C406.383 6.26531 407.654 6.62049 408.578 7.33085C409.508 8.04122 410.169 8.9789 410.56 10.1439ZM426.236 10.1439L423.977 10.7832C423.835 10.4067 423.626 10.0409 423.349 9.68571C423.079 9.32342 422.709 9.02507 422.241 8.79065C421.772 8.55623 421.171 8.43902 420.44 8.43902C419.438 8.43902 418.603 8.66989 417.936 9.13163C417.275 9.58626 416.945 10.1652 416.945 10.8685C416.945 11.4936 417.172 11.9873 417.627 12.3496C418.081 12.7119 418.792 13.0138 419.758 13.2553L422.187 13.852C423.651 14.2072 424.741 14.7506 425.458 15.4823C426.176 16.2068 426.535 17.141 426.535 18.2846C426.535 19.2223 426.265 20.0606 425.725 20.7993C425.192 21.5381 424.446 22.1206 423.487 22.5468C422.528 22.973 421.413 23.1862 420.141 23.1862C418.472 23.1862 417.09 22.8239 415.996 22.0993C414.902 21.3747 414.21 20.3163 413.919 18.924L416.305 18.3273C416.533 19.2081 416.963 19.8688 417.595 20.3092C418.234 20.7496 419.069 20.9698 420.099 20.9698C421.271 20.9698 422.201 20.7212 422.891 20.2239C423.587 19.7196 423.935 19.1158 423.935 18.4125C423.935 17.8442 423.736 17.3683 423.338 16.9847C422.94 16.594 422.329 16.3027 421.505 16.1109L418.778 15.4716C417.279 15.1164 416.178 14.5659 415.474 13.82C414.778 13.067 414.43 12.1258 414.43 10.9963C414.43 10.0729 414.689 9.25594 415.208 8.54558C415.734 7.83521 416.448 7.27758 417.35 6.87267C418.259 6.46776 419.289 6.26531 420.44 6.26531C422.059 6.26531 423.331 6.62049 424.254 7.33085C425.185 8.04122 425.846 8.9789 426.236 10.1439ZM435.136 23.2288C434.099 23.2288 433.158 23.0334 432.313 22.6427C431.467 22.2449 430.796 21.6731 430.299 20.9272C429.801 20.1742 429.553 19.265 429.553 18.1994C429.553 17.2617 429.738 16.5016 430.107 15.9191C430.476 15.3295 430.97 14.8678 431.588 14.5339C432.206 14.2001 432.888 13.9514 433.634 13.7881C434.387 13.6176 435.143 13.4826 435.903 13.3831C436.898 13.2553 437.704 13.1594 438.322 13.0954C438.947 13.0244 439.402 12.9072 439.686 12.7438C439.977 12.5804 440.123 12.2963 440.123 11.8914V11.8061C440.123 10.7548 439.835 9.93789 439.26 9.35539C438.692 8.77289 437.829 8.48164 436.671 8.48164C435.47 8.48164 434.529 8.74448 433.847 9.27015C433.165 9.79581 432.686 10.357 432.408 10.9537L430.022 10.1013C430.448 9.10676 431.016 8.33247 431.727 7.77838C432.444 7.2172 433.225 6.8265 434.071 6.60629C434.923 6.37897 435.761 6.26531 436.585 6.26531C437.111 6.26531 437.715 6.32924 438.397 6.45711C439.086 6.57787 439.75 6.83005 440.389 7.21364C441.036 7.59724 441.572 8.17619 441.998 8.95048C442.425 9.72478 442.638 10.7619 442.638 12.0619V22.8452H440.123V20.6288H439.995C439.825 20.984 439.541 21.3641 439.143 21.769C438.745 22.1739 438.216 22.5184 437.555 22.8026C436.894 23.0867 436.088 23.2288 435.136 23.2288ZM435.52 20.9698C436.514 20.9698 437.353 20.7745 438.035 20.3838C438.724 19.9931 439.242 19.4887 439.59 18.8707C439.945 18.2527 440.123 17.6027 440.123 16.9208V14.6192C440.016 14.747 439.782 14.8643 439.42 14.9708C439.065 15.0703 438.653 15.1591 438.184 15.2372C437.722 15.3082 437.271 15.3722 436.83 15.429C436.397 15.4787 436.046 15.5213 435.776 15.5569C435.122 15.6421 434.511 15.7806 433.943 15.9724C433.382 16.1571 432.927 16.4377 432.579 16.8142C432.238 17.1836 432.068 17.6879 432.068 18.3273C432.068 19.201 432.391 19.8617 433.037 20.3092C433.691 20.7496 434.518 20.9698 435.52 20.9698ZM453.834 29.3237C452.619 29.3237 451.575 29.1674 450.701 28.8548C449.827 28.5494 449.099 28.1445 448.517 27.6401C447.941 27.1429 447.483 26.6101 447.142 26.0418L449.146 24.6353C449.373 24.9336 449.661 25.2746 450.009 25.6582C450.357 26.0489 450.833 26.3863 451.436 26.6705C452.047 26.9617 452.847 27.1074 453.834 27.1074C455.155 27.1074 456.246 26.7877 457.105 26.1484C457.965 25.509 458.394 24.5074 458.394 23.1435V19.819H458.181C457.997 20.1174 457.734 20.4868 457.393 20.9272C457.059 21.3605 456.576 21.7477 455.944 22.0886C455.319 22.4225 454.473 22.5894 453.408 22.5894C452.086 22.5894 450.9 22.2769 449.849 21.6518C448.805 21.0267 447.977 20.1174 447.366 18.924C446.762 17.7306 446.46 16.2814 446.46 14.5766C446.46 12.9001 446.755 11.4403 447.345 10.1972C447.934 8.94693 448.755 7.98084 449.806 7.29889C450.858 6.60984 452.072 6.26531 453.45 6.26531C454.516 6.26531 455.361 6.4429 455.986 6.79808C456.619 7.14616 457.102 7.54396 457.435 7.99149C457.776 8.43192 458.039 8.7942 458.224 9.07835H458.48V6.47842H460.909V23.314C460.909 24.7205 460.589 25.8642 459.95 26.7451C459.318 27.633 458.465 28.283 457.393 28.695C456.327 29.1141 455.141 29.3237 453.834 29.3237ZM453.749 20.3305C454.757 20.3305 455.61 20.0996 456.306 19.6379C457.002 19.1762 457.531 18.512 457.894 17.6453C458.256 16.7787 458.437 15.7416 458.437 14.5339C458.437 13.3547 458.259 12.3141 457.904 11.4119C457.549 10.5097 457.023 9.80292 456.327 9.29146C455.631 8.77999 454.772 8.52426 453.749 8.52426C452.683 8.52426 451.795 8.7942 451.085 9.33408C450.382 9.87395 449.852 10.5985 449.497 11.5078C449.149 12.4171 448.975 13.4258 448.975 14.5339C448.975 15.6705 449.153 16.6757 449.508 17.5494C449.87 18.4161 450.403 19.098 451.106 19.5953C451.816 20.0854 452.697 20.3305 453.749 20.3305ZM472.374 23.1862C470.797 23.1862 469.437 22.8381 468.293 22.1419C467.157 21.4387 466.279 20.4584 465.661 19.201C465.051 17.9366 464.745 16.4661 464.745 14.7897C464.745 13.1132 465.051 11.6357 465.661 10.357C466.279 9.07124 467.139 8.06963 468.24 7.35217C469.348 6.6276 470.641 6.26531 472.119 6.26531C472.971 6.26531 473.813 6.40738 474.644 6.69153C475.475 6.97567 476.232 7.43741 476.914 8.07674C477.596 8.70896 478.139 9.54719 478.544 10.5914C478.949 11.6357 479.151 12.9214 479.151 14.4487V15.5142H466.535V13.3405H476.594C476.594 12.4171 476.409 11.593 476.04 10.8685C475.678 10.1439 475.159 9.57205 474.484 9.15294C473.816 8.73382 473.028 8.52426 472.119 8.52426C471.117 8.52426 470.25 8.77289 469.519 9.27015C468.794 9.7603 468.237 10.3996 467.846 11.1881C467.455 11.9766 467.26 12.822 467.26 13.7241V15.1733C467.26 16.4093 467.473 17.4571 467.899 18.3166C468.332 19.1691 468.933 19.819 469.7 20.2666C470.467 20.707 471.359 20.9272 472.374 20.9272C473.035 20.9272 473.632 20.8349 474.165 20.6502C474.704 20.4584 475.17 20.1742 475.56 19.7977C475.951 19.4141 476.253 18.9382 476.466 18.3699L478.896 19.0518C478.64 19.8759 478.21 20.6004 477.606 21.2256C477.002 21.8436 476.257 22.3266 475.369 22.6747C474.481 23.0157 473.483 23.1862 472.374 23.1862ZM269.428 72.9911C269.002 72.9911 268.622 72.9556 268.288 72.8846C267.954 72.8206 267.723 72.7567 267.595 72.6928L268.235 70.4764C268.846 70.6327 269.386 70.6895 269.854 70.6469C270.323 70.6043 270.739 70.3947 271.101 70.0182C271.47 69.6489 271.808 69.0486 272.113 68.2175L272.582 66.9388L266.53 50.4868H269.258L273.776 63.5291H273.946L278.464 50.4868H281.192L274.244 69.2404C273.932 70.0857 273.545 70.7854 273.083 71.3395C272.621 71.9007 272.085 72.3163 271.474 72.5862C270.87 72.8561 270.188 72.9911 269.428 72.9911ZM290.574 67.1946C289.096 67.1946 287.8 66.8429 286.685 66.1397C285.576 65.4364 284.71 64.4525 284.085 63.1881C283.467 61.9237 283.158 60.4461 283.158 58.7554C283.158 57.0506 283.467 55.5624 284.085 54.2908C284.71 53.0193 285.576 52.0319 286.685 51.3286C287.8 50.6253 289.096 50.2737 290.574 50.2737C292.051 50.2737 293.344 50.6253 294.452 51.3286C295.568 52.0319 296.434 53.0193 297.052 54.2908C297.678 55.5624 297.99 57.0506 297.99 58.7554C297.99 60.4461 297.678 61.9237 297.052 63.1881C296.434 64.4525 295.568 65.4364 294.452 66.1397C293.344 66.8429 292.051 67.1946 290.574 67.1946ZM290.574 64.9356C291.696 64.9356 292.62 64.6479 293.344 64.0725C294.069 63.4971 294.605 62.7406 294.953 61.8029C295.301 60.8652 295.475 59.8494 295.475 58.7554C295.475 57.6615 295.301 56.6421 294.953 55.6973C294.605 54.7525 294.069 53.9889 293.344 53.4064C292.62 52.8239 291.696 52.5327 290.574 52.5327C289.452 52.5327 288.528 52.8239 287.803 53.4064C287.079 53.9889 286.543 54.7525 286.195 55.6973C285.846 56.6421 285.672 57.6615 285.672 58.7554C285.672 59.8494 285.846 60.8652 286.195 61.8029C286.543 62.7406 287.079 63.4971 287.803 64.0725C288.528 64.6479 289.452 64.9356 290.574 64.9356ZM312.143 60.162V50.4868H314.658V66.8536H312.143V64.0832H311.973C311.589 64.9143 310.992 65.6211 310.183 66.2036C309.373 66.779 308.35 67.0667 307.114 67.0667C306.091 67.0667 305.182 66.8429 304.386 66.3954C303.59 65.9408 302.965 65.2588 302.511 64.3495C302.056 63.4332 301.829 62.2788 301.829 60.8865V50.4868H304.343V60.716C304.343 61.9095 304.677 62.8613 305.345 63.5717C306.02 64.2821 306.879 64.6372 307.924 64.6372C308.549 64.6372 309.185 64.4774 309.831 64.1577C310.484 63.8381 311.031 63.3479 311.472 62.6873C311.919 62.0267 312.143 61.1849 312.143 60.162ZM321.92 45.0312V46.9492C321.92 47.5317 321.813 48.1533 321.6 48.8139C321.394 49.4674 321.088 50.1032 320.684 50.7212C320.286 51.3321 319.803 51.8649 319.234 52.3196L317.87 51.2114C318.318 50.5721 318.705 49.9079 319.032 49.2188C319.366 48.5227 319.533 47.7803 319.533 46.9918V45.0312H321.92ZM324.597 66.8536V50.4868H327.026V52.9589H327.197C327.495 52.1491 328.035 51.492 328.816 50.9876C329.598 50.4833 330.479 50.2311 331.459 50.2311C331.644 50.2311 331.874 50.2346 332.151 50.2417C332.428 50.2488 332.638 50.2595 332.78 50.2737V52.831C332.695 52.8097 332.5 52.7777 332.194 52.7351C331.896 52.6854 331.58 52.6605 331.246 52.6605C330.45 52.6605 329.74 52.8275 329.115 53.1613C328.497 53.4881 328.006 53.9427 327.644 54.5252C327.289 55.1006 327.111 55.7577 327.111 56.4965V66.8536H324.597ZM342.125 67.1946C340.548 67.1946 339.188 66.8465 338.044 66.1503C336.907 65.4471 336.03 64.4668 335.412 63.2094C334.801 61.945 334.496 60.4745 334.496 58.7981C334.496 57.1216 334.801 55.6441 335.412 54.3654C336.03 53.0796 336.89 52.078 337.991 51.3606C339.099 50.636 340.392 50.2737 341.869 50.2737C342.722 50.2737 343.563 50.4158 344.395 50.6999C345.226 50.9841 345.982 51.4458 346.664 52.0851C347.346 52.7174 347.89 53.5556 348.294 54.5998C348.699 55.6441 348.902 56.9298 348.902 58.4571V59.5226H336.286V57.3489H346.344C346.344 56.4254 346.16 55.6014 345.79 54.8769C345.428 54.1523 344.91 53.5804 344.235 53.1613C343.567 52.7422 342.778 52.5327 341.869 52.5327C340.868 52.5327 340.001 52.7813 339.269 53.2785C338.545 53.7687 337.987 54.408 337.596 55.1965C337.206 55.985 337.01 56.8304 337.01 57.7325V59.1817C337.01 60.4177 337.223 61.4655 337.65 62.325C338.083 63.1774 338.683 63.8274 339.45 64.275C340.218 64.7154 341.109 64.9356 342.125 64.9356C342.786 64.9356 343.382 64.8432 343.915 64.6586C344.455 64.4668 344.92 64.1826 345.311 63.8061C345.702 63.4225 346.004 62.9466 346.217 62.3783L348.646 63.0602C348.39 63.8843 347.961 64.6088 347.357 65.2339C346.753 65.852 346.007 66.335 345.119 66.6831C344.231 67.0241 343.233 67.1946 342.125 67.1946ZM365.982 67.2372C364.945 67.2372 364.004 67.0418 363.159 66.6511C362.313 66.2533 361.642 65.6815 361.145 64.9356C360.648 64.1826 360.399 63.2733 360.399 62.2078C360.399 61.2701 360.584 60.51 360.953 59.9275C361.322 59.3379 361.816 58.8762 362.434 58.5423C363.052 58.2085 363.734 57.9598 364.48 57.7965C365.233 57.626 365.99 57.491 366.75 57.3915C367.744 57.2637 368.55 57.1678 369.168 57.1038C369.794 57.0328 370.248 56.9156 370.532 56.7522C370.824 56.5888 370.969 56.3047 370.969 55.8998V55.8145C370.969 54.7632 370.682 53.9463 370.106 53.3638C369.538 52.7813 368.675 52.49 367.517 52.49C366.316 52.49 365.375 52.7529 364.693 53.2785C364.011 53.8042 363.532 54.3654 363.255 54.9621L360.868 54.1097C361.294 53.1152 361.862 52.3409 362.573 51.7868C363.29 51.2256 364.072 50.8349 364.917 50.6147C365.769 50.3874 366.608 50.2737 367.432 50.2737C367.957 50.2737 368.561 50.3376 369.243 50.4655C369.932 50.5863 370.596 50.8384 371.236 51.222C371.882 51.6056 372.418 52.1846 372.845 52.9589C373.271 53.7332 373.484 54.7703 373.484 56.0703V66.8536H370.969V64.6372H370.841C370.671 64.9924 370.387 65.3725 369.989 65.7774C369.591 66.1823 369.062 66.5268 368.401 66.811C367.741 67.0951 366.934 67.2372 365.982 67.2372ZM366.366 64.9782C367.361 64.9782 368.199 64.7829 368.881 64.3922C369.57 64.0015 370.088 63.4971 370.436 62.8791C370.792 62.2611 370.969 61.6111 370.969 60.9291V58.6276C370.863 58.7554 370.628 58.8726 370.266 58.9792C369.911 59.0787 369.499 59.1674 369.03 59.2456C368.568 59.3166 368.117 59.3806 367.677 59.4374C367.243 59.4871 366.892 59.5297 366.622 59.5653C365.968 59.6505 365.357 59.789 364.789 59.9808C364.228 60.1655 363.773 60.4461 363.425 60.8226C363.084 61.192 362.914 61.6963 362.914 62.3357C362.914 63.2094 363.237 63.8701 363.883 64.3176C364.537 64.758 365.364 64.9782 366.366 64.9782ZM380.588 45.0312V66.8536H378.074V45.0312H380.588ZM388.902 66.8536L383.916 50.4868H386.558L390.096 63.0176H390.266L393.761 50.4868H396.446L399.899 62.975H400.069L403.607 50.4868H406.249L401.263 66.8536H398.791L395.21 54.2802H394.955L391.374 66.8536H388.902ZM414.39 67.2372C413.353 67.2372 412.412 67.0418 411.566 66.6511C410.721 66.2533 410.05 65.6815 409.553 64.9356C409.055 64.1826 408.807 63.2733 408.807 62.2078C408.807 61.2701 408.991 60.51 409.361 59.9275C409.73 59.3379 410.224 58.8762 410.842 58.5423C411.46 58.2085 412.142 57.9598 412.888 57.7965C413.641 57.626 414.397 57.491 415.157 57.3915C416.152 57.2637 416.958 57.1678 417.576 57.1038C418.201 57.0328 418.656 56.9156 418.94 56.7522C419.231 56.5888 419.377 56.3047 419.377 55.8998V55.8145C419.377 54.7632 419.089 53.9463 418.514 53.3638C417.946 52.7813 417.082 52.49 415.925 52.49C414.724 52.49 413.783 52.7529 413.101 53.2785C412.419 53.8042 411.939 54.3654 411.662 54.9621L409.276 54.1097C409.702 53.1152 410.27 52.3409 410.98 51.7868C411.698 51.2256 412.479 50.8349 413.325 50.6147C414.177 50.3874 415.015 50.2737 415.839 50.2737C416.365 50.2737 416.969 50.3376 417.651 50.4655C418.34 50.5863 419.004 50.8384 419.643 51.222C420.29 51.6056 420.826 52.1846 421.252 52.9589C421.678 53.7332 421.892 54.7703 421.892 56.0703V66.8536H419.377V64.6372H419.249C419.079 64.9924 418.794 65.3725 418.397 65.7774C417.999 66.1823 417.47 66.5268 416.809 66.811C416.148 67.0951 415.342 67.2372 414.39 67.2372ZM414.774 64.9782C415.768 64.9782 416.606 64.7829 417.288 64.3922C417.977 64.0015 418.496 63.4971 418.844 62.8791C419.199 62.2611 419.377 61.6111 419.377 60.9291V58.6276C419.27 58.7554 419.036 58.8726 418.674 58.9792C418.318 59.0787 417.906 59.1674 417.438 59.2456C416.976 59.3166 416.525 59.3806 416.084 59.4374C415.651 59.4871 415.299 59.5297 415.029 59.5653C414.376 59.6505 413.765 59.789 413.197 59.9808C412.636 60.1655 412.181 60.4461 411.833 60.8226C411.492 61.192 411.321 61.6963 411.321 62.3357C411.321 63.2094 411.645 63.8701 412.291 64.3176C412.945 64.758 413.772 64.9782 414.774 64.9782ZM427.515 72.9911C427.089 72.9911 426.709 72.9556 426.375 72.8846C426.041 72.8206 425.81 72.7567 425.682 72.6928L426.322 70.4764C426.932 70.6327 427.472 70.6895 427.941 70.6469C428.41 70.6043 428.826 70.3947 429.188 70.0182C429.557 69.6489 429.895 69.0486 430.2 68.2175L430.669 66.9388L424.617 50.4868H427.344L431.862 63.5291H432.033L436.551 50.4868H439.279L432.331 69.2404C432.019 70.0857 431.632 70.7854 431.17 71.3395C430.708 71.9007 430.172 72.3163 429.561 72.5862C428.957 72.8561 428.275 72.9911 427.515 72.9911ZM454.191 54.1523L451.932 54.7916C451.79 54.4151 451.58 54.0493 451.303 53.6941C451.033 53.3318 450.664 53.0335 450.195 52.799C449.726 52.5646 449.126 52.4474 448.394 52.4474C447.393 52.4474 446.558 52.6783 445.89 53.14C445.23 53.5947 444.899 54.1736 444.899 54.8769C444.899 55.502 445.127 55.9957 445.581 56.358C446.036 56.7202 446.746 57.0222 447.712 57.2637L450.142 57.8604C451.605 58.2156 452.696 58.759 453.413 59.4907C454.13 60.2152 454.489 61.1494 454.489 62.293C454.489 63.2307 454.219 64.069 453.679 64.8077C453.147 65.5465 452.401 66.129 451.442 66.5552C450.483 66.9814 449.368 67.1946 448.096 67.1946C446.427 67.1946 445.045 66.8323 443.951 66.1077C442.857 65.3831 442.164 64.3247 441.873 62.9324L444.26 62.3357C444.487 63.2165 444.917 63.8772 445.549 64.3176C446.189 64.758 447.023 64.9782 448.053 64.9782C449.225 64.9782 450.156 64.7296 450.845 64.2323C451.541 63.728 451.889 63.1242 451.889 62.4209C451.889 61.8526 451.69 61.3767 451.293 60.9931C450.895 60.6024 450.284 60.3111 449.46 60.1193L446.732 59.48C445.233 59.1248 444.132 58.5743 443.429 57.8284C442.733 57.0754 442.385 56.1342 442.385 55.0047C442.385 54.0813 442.644 53.2643 443.162 52.554C443.688 51.8436 444.402 51.286 445.304 50.8811C446.214 50.4762 447.244 50.2737 448.394 50.2737C450.014 50.2737 451.285 50.6289 452.209 51.3393C453.14 52.0496 453.8 52.9873 454.191 54.1523ZM466.714 66.8536V50.4868H469.228V66.8536H466.714ZM467.992 47.759C467.502 47.759 467.08 47.5921 466.724 47.2582C466.376 46.9243 466.202 46.523 466.202 46.0542C466.202 45.5853 466.376 45.184 466.724 44.8501C467.08 44.5162 467.502 44.3493 467.992 44.3493C468.482 44.3493 468.902 44.5162 469.25 44.8501C469.605 45.184 469.782 45.5853 469.782 46.0542C469.782 46.523 469.605 46.9243 469.25 47.2582C468.902 47.5921 468.482 47.759 467.992 47.759ZM476.349 57.0079V66.8536H473.834V50.4868H476.264V53.0441H476.477C476.86 52.213 477.443 51.5453 478.224 51.0409C479.006 50.5294 480.014 50.2737 481.25 50.2737C482.359 50.2737 483.328 50.501 484.159 50.9557C484.99 51.4032 485.637 52.0851 486.099 53.0015C486.56 53.9108 486.791 55.0616 486.791 56.4539V66.8536H484.277V56.6244C484.277 55.3386 483.943 54.337 483.275 53.6195C482.607 52.8949 481.691 52.5327 480.526 52.5327C479.723 52.5327 479.006 52.7067 478.373 53.0548C477.748 53.4029 477.255 53.9108 476.892 54.5785C476.53 55.2462 476.349 56.0561 476.349 57.0079ZM506.943 50.4868V52.6179H498.462V50.4868H506.943ZM500.934 46.5656H503.448V62.1652C503.448 62.8755 503.551 63.4083 503.757 63.7635C503.97 64.1116 504.24 64.346 504.567 64.4668C504.901 64.5804 505.253 64.6372 505.622 64.6372C505.899 64.6372 506.126 64.623 506.304 64.5946C506.482 64.5591 506.624 64.5307 506.73 64.5094L507.242 66.7683C507.071 66.8323 506.833 66.8962 506.528 66.9601C506.222 67.0312 505.835 67.0667 505.366 67.0667C504.656 67.0667 503.96 66.914 503.278 66.6085C502.603 66.303 502.042 65.8378 501.594 65.2126C501.154 64.5875 500.934 63.799 500.934 62.8471V46.5656ZM513.592 57.0079V66.8536H511.078V45.0312H513.592V53.0441H513.805C514.189 52.1988 514.764 51.5275 515.532 51.0302C516.306 50.5259 517.336 50.2737 518.622 50.2737C519.737 50.2737 520.714 50.4975 521.552 50.945C522.39 51.3854 523.04 52.0638 523.502 52.9802C523.971 53.8895 524.205 55.0473 524.205 56.4539V66.8536H521.69V56.6244C521.69 55.3244 521.353 54.3192 520.678 53.6089C520.01 52.8914 519.083 52.5327 517.897 52.5327C517.073 52.5327 516.334 52.7067 515.681 53.0548C515.034 53.4029 514.523 53.9108 514.146 54.5785C513.777 55.2462 513.592 56.0561 513.592 57.0079ZM535.668 67.1946C534.091 67.1946 532.73 66.8465 531.587 66.1503C530.45 65.4471 529.573 64.4668 528.955 63.2094C528.344 61.945 528.038 60.4745 528.038 58.7981C528.038 57.1216 528.344 55.6441 528.955 54.3654C529.573 53.0796 530.432 52.078 531.533 51.3606C532.642 50.636 533.934 50.2737 535.412 50.2737C536.264 50.2737 537.106 50.4158 537.937 50.6999C538.768 50.9841 539.525 51.4458 540.207 52.0851C540.889 52.7174 541.432 53.5556 541.837 54.5998C542.242 55.6441 542.445 56.9298 542.445 58.4571V59.5226H529.829V57.3489H539.887C539.887 56.4254 539.703 55.6014 539.333 54.8769C538.971 54.1523 538.452 53.5804 537.777 53.1613C537.11 52.7422 536.321 52.5327 535.412 52.5327C534.41 52.5327 533.544 52.7813 532.812 53.2785C532.087 53.7687 531.53 54.408 531.139 55.1965C530.748 55.985 530.553 56.8304 530.553 57.7325V59.1817C530.553 60.4177 530.766 61.4655 531.192 62.325C531.626 63.1774 532.226 63.8274 532.993 64.275C533.76 64.7154 534.652 64.9356 535.668 64.9356C536.328 64.9356 536.925 64.8432 537.458 64.6586C537.998 64.4668 538.463 64.1826 538.854 63.8061C539.244 63.4225 539.546 62.9466 539.759 62.3783L542.189 63.0602C541.933 63.8843 541.503 64.6088 540.9 65.2339C540.296 65.852 539.55 66.335 538.662 66.6831C537.774 67.0241 536.776 67.1946 535.668 67.1946ZM557.224 45.0312V66.8536H554.709V45.0312H557.224ZM568.478 67.1946C567.001 67.1946 565.705 66.8429 564.589 66.1397C563.481 65.4364 562.614 64.4525 561.989 63.1881C561.371 61.9237 561.062 60.4461 561.062 58.7554C561.062 57.0506 561.371 55.5624 561.989 54.2908C562.614 53.0193 563.481 52.0319 564.589 51.3286C565.705 50.6253 567.001 50.2737 568.478 50.2737C569.956 50.2737 571.249 50.6253 572.357 51.3286C573.472 52.0319 574.339 53.0193 574.957 54.2908C575.582 55.5624 575.895 57.0506 575.895 58.7554C575.895 60.4461 575.582 61.9237 574.957 63.1881C574.339 64.4525 573.472 65.4364 572.357 66.1397C571.249 66.8429 569.956 67.1946 568.478 67.1946ZM568.478 64.9356C569.601 64.9356 570.524 64.6479 571.249 64.0725C571.973 63.4971 572.51 62.7406 572.858 61.8029C573.206 60.8652 573.38 59.8494 573.38 58.7554C573.38 57.6615 573.206 56.6421 572.858 55.6973C572.51 54.7525 571.973 53.9889 571.249 53.4064C570.524 52.8239 569.601 52.5327 568.478 52.5327C567.356 52.5327 566.433 52.8239 565.708 53.4064C564.984 53.9889 564.447 54.7525 564.099 55.6973C563.751 56.6421 563.577 57.6615 563.577 58.7554C563.577 59.8494 563.751 60.8652 564.099 61.8029C564.447 62.7406 564.984 63.4971 565.708 64.0725C566.433 64.6479 567.356 64.9356 568.478 64.9356ZM586.382 67.1946C584.905 67.1946 583.608 66.8429 582.493 66.1397C581.385 65.4364 580.518 64.4525 579.893 63.1881C579.275 61.9237 578.966 60.4461 578.966 58.7554C578.966 57.0506 579.275 55.5624 579.893 54.2908C580.518 53.0193 581.385 52.0319 582.493 51.3286C583.608 50.6253 584.905 50.2737 586.382 50.2737C587.86 50.2737 589.153 50.6253 590.261 51.3286C591.376 52.0319 592.243 53.0193 592.861 54.2908C593.486 55.5624 593.798 57.0506 593.798 58.7554C593.798 60.4461 593.486 61.9237 592.861 63.1881C592.243 64.4525 591.376 65.4364 590.261 66.1397C589.153 66.8429 587.86 67.1946 586.382 67.1946ZM586.382 64.9356C587.505 64.9356 588.428 64.6479 589.153 64.0725C589.877 63.4971 590.414 62.7406 590.762 61.8029C591.11 60.8652 591.284 59.8494 591.284 58.7554C591.284 57.6615 591.11 56.6421 590.762 55.6973C590.414 54.7525 589.877 53.9889 589.153 53.4064C588.428 52.8239 587.505 52.5327 586.382 52.5327C585.26 52.5327 584.336 52.8239 583.612 53.4064C582.887 53.9889 582.351 54.7525 582.003 55.6973C581.655 56.6421 581.481 57.6615 581.481 58.7554C581.481 59.8494 581.655 60.8652 582.003 61.8029C582.351 62.7406 582.887 63.4971 583.612 64.0725C584.336 64.6479 585.26 64.9356 586.382 64.9356ZM597.637 72.9911V50.4868H600.067V53.0867H600.365C600.55 52.8026 600.805 52.4403 601.132 51.9999C601.466 51.5524 601.942 51.1546 602.56 50.8065C603.185 50.4513 604.03 50.2737 605.096 50.2737C606.474 50.2737 607.689 50.6182 608.74 51.3073C609.791 51.9963 610.612 52.9731 611.201 54.2375C611.791 55.502 612.086 56.9937 612.086 58.7128C612.086 60.4461 611.791 61.9485 611.201 63.2201C610.612 64.4845 609.795 65.4648 608.751 66.161C607.706 66.85 606.502 67.1946 605.139 67.1946C604.087 67.1946 603.245 67.0205 602.613 66.6724C601.981 66.3173 601.494 65.9159 601.153 65.4684C600.812 65.0137 600.55 64.6372 600.365 64.3389H600.152V72.9911H597.637ZM600.109 58.6702C600.109 59.9062 600.29 60.9966 600.653 61.9414C601.015 62.8791 601.544 63.6143 602.24 64.1471C602.936 64.6728 603.789 64.9356 604.798 64.9356C605.849 64.9356 606.726 64.6586 607.429 64.1045C608.14 63.5433 608.673 62.7903 609.028 61.8455C609.39 60.8936 609.571 59.8352 609.571 58.6702C609.571 57.5194 609.394 56.4823 609.038 55.5588C608.69 54.6282 608.161 53.893 607.451 53.3531C606.748 52.8062 605.863 52.5327 604.798 52.5327C603.775 52.5327 602.915 52.7919 602.219 53.3105C601.523 53.822 600.997 54.5394 600.642 55.4629C600.287 56.3793 600.109 57.4484 600.109 58.6702Z" fill="black"/>
</svg>
