<svg width="131" height="102" viewBox="0 0 131 102" fill="none" xmlns="http://www.w3.org/2000/svg">
<path d="M50.8085 0.632515C40.3559 -1.78065 29.6775 2.91549 21.1199 11.1952C11.4704 20.521 4.45096 33.8665 1.30422 47.4966C0.438436 51.2467 -0.00283465 54.8543 2.77003e-05 58.2343C0.00662746 59.8714 0.124523 61.5061 0.3529 63.1273C0.578103 64.6516 0.925 66.1554 1.39012 67.6245C3.66548 74.6342 8.68289 80.0894 18.1103 82.2659C26.0612 84.1015 32.9177 81.9304 42.1665 74.1458C47.4442 69.7024 50.2366 66.9118 61.6082 54.4645L67.2655 48.2791L68.6519 46.7806C68.8532 47.3866 69.0543 47.9702 69.2559 48.5987L76.2772 70.3332C78.6386 77.6483 81.9859 85.9518 85.3319 90.9652C89.6772 97.4903 94.4159 99.8882 100.088 101.198C105.798 102.516 110.488 101.612 114.161 99.7301C116.217 98.6605 118.075 97.2487 119.656 95.555C123.687 91.2318 126.838 85.3126 128.822 76.7181C132.158 62.2702 131.774 47.4281 126.889 34.5902C122.425 22.8621 114.777 15.4008 105.435 13.244C99.8739 11.9602 93.7721 13.1643 87.6154 16.4482C83.4535 18.6764 79.3572 21.759 75.435 25.1056C72.8432 19.6117 70.2417 15.2514 67.5569 11.7837C62.4635 5.20317 56.8592 2.02384 50.8097 0.627202L50.8085 0.632515ZM102.253 23.9957C108.345 25.4022 112.945 30.705 115.693 38.2827C119.562 48.9557 119.296 62.5852 116.592 74.2976C114.694 82.5201 111.081 89.2504 103.268 87.4467C100.188 86.7355 98.096 84.9656 95.6618 80.0732C93.7643 76.2727 90.8319 68.451 85.9645 53.452L83.9482 47.2349C82.6409 43.1801 81.2279 39.1599 79.7107 35.1788C80.2163 34.6857 80.7343 34.1618 81.2325 33.7007C89.2252 26.2192 95.6724 22.4765 102.259 23.997L102.253 23.9957ZM47.3949 14.4247C54.1136 15.9758 57.3555 21.1498 59.8293 25.3856C61.0588 27.4991 62.6756 30.9159 64.4469 35.2859L57.1091 42.3536C51.6624 47.6028 43.4135 56.0713 36.7213 61.9171C28.3734 69.2159 24.8798 69.3493 21.2893 68.5203C18.5062 67.8778 16.0669 65.9885 14.9176 62.6069C14.0432 60.0216 13.8389 56.0358 14.9622 51.1701C17.6859 39.3727 23.8697 27.8538 31.2447 20.8676C34.4986 17.7751 37.8683 15.5375 41.2667 14.6044C43.2619 14.03 45.3697 13.9682 47.3949 14.4247Z" fill="black"/>
</svg>
