<svg width="125" height="120" viewBox="0 0 125 120" fill="none" xmlns="http://www.w3.org/2000/svg">
<path d="M19.886 32.5642C23.9136 34.439 25.1203 33.9194 31.3147 31.9284L89.8059 13.5779C91.064 13.2642 89.7049 12.2729 89.2357 12.1714L77.5992 7.53365C75.3486 6.54613 72.411 5.50189 67.6892 7.12095L11.2424 25.6317C9.19998 26.3594 9.03857 27.5113 10.0817 28.1348L19.886 32.5642ZM26.8836 45.451L42.3881 107.636C43.2211 110.977 45.2092 111.811 48.9354 110.659L113.251 90.6331C116.978 89.4852 116.828 87.0811 116.151 84.3664L100.75 22.5972C100.074 19.8869 98.6626 18.6854 96.4 19.468L29.1983 40.437C26.7346 41.2745 26.2078 42.7408 26.8836 45.451ZM92.1309 32.7222C93.0171 34.4964 93.0676 36.479 91.2341 37.1642L88.2451 38.5745L99.6906 84.48C97.3233 86.6235 95.0157 88.0873 92.9175 88.6104C89.5567 89.4484 88.4555 88.6112 85.16 86.1122L56.5823 59.1006L64.3345 90.1931L71.2062 90.038C71.2062 90.038 72.1429 93.7949 66.895 95.1033L52.6259 99.5445C52.0007 98.8169 51.8978 96.6241 53.2632 95.8417L56.7776 93.8587L46.5264 52.7433L41.1872 53.628C40.2965 51.8548 40.6721 48.8825 43.5536 47.9408L58.8217 43.0271L88.3433 70.2453L81.162 41.4427L75.548 42.1822C74.557 39.9875 75.817 37.9014 77.8639 37.1724L92.1309 32.7222ZM5.01189 21.1995L63.7212 1.90613C70.9067 -0.55047 72.902 -0.606151 78.3493 1.5843L100.77 10.1791C104.487 11.6893 105.695 12.0534 106.319 14.558L124.582 87.8078C125.727 92.3967 124.729 95.5337 118.959 97.4093L50.547 118.903C46.1963 120.211 43.9374 120.109 40.8987 117.76L22.3127 103.107C18.9636 100.394 17.2934 98.1546 16.5641 95.2297L0.330332 30.1195C-0.605243 26.3671 0.293464 22.813 5.01189 21.1995Z" fill="black"/>
</svg>
