<svg width="40" height="40" viewBox="0 0 40 40" fill="none" xmlns="http://www.w3.org/2000/svg">
<path d="M19.9947 13.3303C16.3223 13.3303 13.3253 16.3273 13.3253 19.9997C13.3253 23.6722 16.3223 26.6691 19.9947 26.6691C23.667 26.6691 26.664 23.6722 26.664 19.9997C26.664 16.3273 23.667 13.3303 19.9947 13.3303ZM39.9978 19.9997C39.9978 17.2379 40.023 14.501 39.8678 11.7442C39.7126 8.54213 38.9823 5.70025 36.6407 3.3587C34.2942 1.01215 31.4574 0.286677 28.2552 0.131574C25.4933 -0.0235283 22.7566 0.00148819 19.9997 0.00148819C17.2379 0.00148819 14.501 -0.0235283 11.7442 0.131574C8.54213 0.286677 5.70025 1.01716 3.3587 3.3587C1.01216 5.70525 0.286677 8.54213 0.131574 11.7442C-0.0235283 14.5061 0.00148819 17.2429 0.00148819 19.9997C0.00148819 22.7566 -0.0235283 25.4982 0.131574 28.2552C0.286677 31.4573 1.01716 34.2991 3.3587 36.6407C5.70525 38.9872 8.54213 39.7126 11.7442 39.8678C14.5061 40.023 17.2429 39.9978 19.9997 39.9978C22.7615 39.9978 25.4982 40.023 28.2552 39.8678C31.4574 39.7126 34.2991 38.9823 36.6407 36.6407C38.9872 34.2942 39.7126 31.4573 39.8678 28.2552C40.0279 25.4982 39.9978 22.7615 39.9978 19.9997ZM19.9947 30.2615C14.3159 30.2615 9.73291 25.6784 9.73291 19.9997C9.73291 14.3209 14.3159 9.7379 19.9947 9.7379C25.6735 9.7379 30.2566 14.3209 30.2566 19.9997C30.2566 25.6784 25.6735 30.2615 19.9947 30.2615ZM30.6767 11.7142C29.3508 11.7142 28.2802 10.6435 28.2802 9.31764C28.2802 7.99177 29.3508 6.92105 30.6767 6.92105C32.0026 6.92105 33.0734 7.99177 33.0734 9.31764C33.0738 9.63247 33.0121 9.94429 32.8917 10.2352C32.7715 10.5262 32.595 10.7905 32.3723 11.0132C32.1496 11.2358 31.8854 11.4123 31.5944 11.5326C31.3034 11.6529 30.9915 11.7146 30.6767 11.7142Z" fill="white"/>
</svg>
