<svg width="191" height="81" viewBox="0 0 191 81" fill="none" xmlns="http://www.w3.org/2000/svg">
<path d="M42.6865 65.5461L40.6292 65.963L22.3242 70.527L40.6274 40.0472L40.0219 38.0365C39.5917 36.4658 38.5728 35.1212 37.177 34.2823C35.7812 33.4434 34.116 33.1748 32.5274 33.5322L30.4681 33.9415L-1.12595e-05 41.5381L0.61292 43.5469C1.6923 46.7845 4.72023 48.6877 8.09249 48.055L10.1516 47.6457L28.4642 43.0799L10.1309 73.5671L10.742 75.5685C11.6688 78.804 14.9359 80.7677 18.2291 80.0746L20.2882 79.6652L50.779 72.063L50.1661 70.0543C49.0623 66.7828 46.087 64.9305 42.6809 65.5556L42.6865 65.5461ZM58.9543 26.8391L58.9241 26.8466C53.5375 28.1928 48.9064 31.6247 46.0493 36.3875C43.192 41.1503 42.3429 46.8539 43.6883 52.2442C45.0339 57.6344 48.4641 62.2698 53.2243 65.1311C57.9846 67.9924 63.6852 68.8452 69.0726 67.5019C74.4602 66.1586 79.0932 62.7294 81.953 57.9682C84.8128 53.207 85.6652 47.5038 84.3226 42.113C82.9801 36.7219 79.5527 32.0845 74.7939 29.2206C70.0352 26.3567 64.335 25.5007 58.9469 26.8409L58.9543 26.8391ZM74.7716 53.6475C73.9499 55.1179 72.8412 56.4083 71.5114 57.4418C70.1814 58.4755 68.6575 59.2314 67.03 59.6646C65.4024 60.0979 63.7044 60.1996 62.0366 59.9639C60.3689 59.7281 58.7654 59.1596 57.3214 58.2923C55.8774 57.4249 54.6225 56.2761 53.6308 54.9145C52.6392 53.5526 51.9312 52.0054 51.5488 50.3649C51.1664 48.7242 51.1174 47.0235 51.4047 45.3636C51.6922 43.7037 52.31 42.1185 53.2216 40.7021C54.9901 37.9546 57.7581 36.0035 60.94 35.2619C64.1218 34.5203 67.4674 35.0465 70.2683 36.7291C73.0693 38.4116 75.1055 41.1184 75.9461 44.2762C76.7867 47.4341 76.3654 50.7952 74.7716 53.6475ZM164.589 0.509477C162.287 1.08669 160.134 2.14621 158.273 3.61792C156.411 5.08958 154.883 6.93994 153.79 9.04647C151.833 7.69136 149.61 6.76952 147.269 6.34259C144.927 5.91571 142.522 5.99353 140.214 6.57088C136.967 7.37592 134.038 9.13839 131.805 11.6296C129.785 10.2679 125.986 10.1183 123.958 10.6238L134.097 51.2894L136.108 50.6842C139.442 49.6126 141.315 46.5917 140.61 43.1887L140.201 41.129L136.651 26.8904L136.249 24.8289C135.945 23.2875 135.832 21.8743 136.229 20.5105C136.843 18.3749 138.28 16.5714 140.223 15.4968C142.166 14.4223 144.457 14.1646 146.591 14.7805C147.996 15.1837 149.271 15.9478 150.289 16.9968C151.291 18.0282 151.832 19.3342 152.299 20.8192L152.914 22.8356L156.464 37.0742L157.067 39.0775C157.522 40.6315 158.544 41.9578 159.931 42.7927C161.318 43.6277 162.969 43.9099 164.554 43.5837L166.613 43.1744L161.037 20.8101L160.621 18.7523C160.32 17.226 160.2 15.7827 160.61 14.4076C161.905 9.96957 166.547 7.40287 170.977 8.70027C172.384 9.1053 173.659 9.87208 174.678 10.9241C175.672 11.9573 176.226 13.2841 176.672 14.7502L177.293 16.7572L180.843 30.9958L181.446 32.9991C182.49 36.2856 185.531 38.1454 188.941 37.5035L191 37.0942L184.917 12.6947C184.382 10.559 183.432 8.54958 182.121 6.78105C180.81 5.01252 179.164 3.51952 177.276 2.38732C175.388 1.25511 173.296 0.505857 171.119 0.182407C168.942 -0.141096 166.722 -0.032521 164.587 0.501944L164.589 0.509477ZM88.7273 25.7328C87.2226 28.0921 86.2057 30.7291 85.7363 33.4884C85.2669 36.2477 85.3547 39.0732 85.9945 41.7983C86.6345 44.5233 87.8134 47.0927 89.4617 49.3547C91.1102 51.6169 93.1946 53.5257 95.5921 54.9688C97.9896 56.412 100.652 57.3599 103.421 57.7569C106.191 58.1541 109.011 57.9921 111.717 57.2806C114.423 56.5692 116.958 55.3226 119.174 53.6146C121.39 51.9066 123.241 49.7717 124.619 47.3358C127.307 42.5825 128.034 36.9663 126.645 31.6832C125.256 26.4004 121.86 21.8682 117.182 19.052C112.503 16.2359 106.911 15.3583 101.596 16.6061C96.2811 17.854 91.6638 21.1287 88.7273 25.7328ZM117.448 43.007C116.606 44.4398 115.489 45.6915 114.16 46.6896C112.831 47.6877 111.318 48.4127 109.708 48.8222C108.097 49.2318 106.421 49.3181 104.777 49.076C103.133 48.8339 101.553 48.2684 100.129 47.4121C98.7049 46.5557 97.4643 45.4254 96.4795 44.0866C95.4945 42.7479 94.7847 41.2271 94.3909 39.6122C93.9972 37.9975 93.9273 36.3207 94.1853 34.6788C94.4434 33.0369 95.0243 31.4625 95.8945 30.0466C97.6295 27.2233 100.408 25.1992 103.628 24.4142C106.847 23.6292 110.245 24.1468 113.085 25.8545C115.925 27.5621 117.977 30.3218 118.794 33.5337C119.611 36.7456 119.127 40.15 117.448 43.007Z" fill="black"/>
</svg>
