<svg width="190" height="93" viewBox="0 0 190 93" fill="none" xmlns="http://www.w3.org/2000/svg">
<path d="M176.788 54.9086L172.817 47.2186L154.583 52.4471L154.004 61.3789L139.398 65.5986C141.558 46.8755 143.736 28.1543 145.93 9.43502C146.307 6.2586 148.004 4.21039 151.12 3.33262C153.505 2.67224 157.385 1.55957 162.77 -0.000213055L189.678 51.189L176.788 54.9086ZM155.484 40.0955L167.233 36.7263L156.982 17.5354L155.484 40.0955ZM51.1999 31.9762L65.8988 27.7771L58.7981 88.7494L43.9179 93.0004C36.0525 79.6884 28.2301 66.3512 20.4509 52.9887C18.9022 50.3251 16.8901 48.7282 13.8543 48.5706C9.38043 48.3736 4.90395 48.2393 0.426254 48.1676L-5.35217e-06 46.6811L23.4779 39.9489C27.5397 38.7842 30.4749 40.0693 32.3925 43.8827C34.3195 47.7013 39.1973 57.4307 47.0404 73.0666L51.1999 31.9762ZM86.0911 21.987L90.0832 79.7628L76.0954 83.7581L72.0887 25.9865L86.0911 21.987ZM114.161 12.8472C118.346 11.6472 123.994 11.4405 127.368 11.7676L128.154 23.7611C125.097 23.445 120.159 23.2521 116.38 24.3906C110.895 26.0655 108.149 29.3562 108.786 31.5751C109.821 35.1863 116.262 35.3094 123.485 37.507C131.73 40.0086 133.802 43.7856 134.973 48.1977C137.49 57.3326 132.379 68.5216 116.161 73.1719C108.731 75.1846 105.884 75.3264 99.2357 74.9174L98.4098 62.4019C105.291 63.2146 108.13 63.2873 113.381 61.7815C118.19 60.4027 121.76 57.2758 120.825 53.8791C120.164 51.4633 118.341 50.691 112.092 49.2652C105.841 47.8323 97.086 45.8775 94.813 37.5672C91.8963 26.9302 99.902 16.936 114.169 12.8451L114.161 12.8472Z" fill="black"/>
</svg>
